<?xml version="1.0" encoding="UTF-8" standalone="no"?>
<!DOCTYPE svg PUBLIC "-//W3C//DTD SVG 1.1//EN" "http://www.w3.org/Graphics/SVG/1.1/DTD/svg11.dtd">
<svg width="100%" height="100%" viewBox="0 0 73 109" version="1.1" xmlns="http://www.w3.org/2000/svg" xmlns:xlink="http://www.w3.org/1999/xlink" xml:space="preserve" xmlns:serif="http://www.serif.com/" style="fill-rule:evenodd;clip-rule:evenodd;stroke-linejoin:round;stroke-miterlimit:2;">
    <g transform="matrix(1,0,0,1,-0.179068,0)">
        <g>
            <rect x="0.564" y="36.409" width="71.28" height="71.278" style="fill:white;"/>
            <path d="M0.563,36.409L0.179,36.409L0.179,108.074L72.227,108.074L72.227,36.025L0.179,36.025L0.179,36.409L0.563,36.409L0.563,36.793L71.843,36.793L71.843,36.409L71.457,36.409L71.457,107.687L71.843,107.687L71.843,107.303L0.563,107.303L0.563,107.687L0.947,107.687L0.947,36.409L0.563,36.409L0.563,36.793L0.563,36.409Z" style="fill:rgb(196,22,28);fill-rule:nonzero;"/>
            <g>
                <path d="M28.97,84.381C29.167,84.657 29.455,85.088 29.651,85.363C30.685,86.818 31.039,87.276 31.864,88.31C31.498,88.271 31.171,88.231 30.699,88.231C30.188,88.231 30.031,88.258 29.638,88.31C29.441,88.009 29.154,87.525 28.957,87.223C28.289,86.189 27.477,85.036 26.77,84.041L26.456,84.041L26.456,85.901C26.456,86.28 26.508,87.97 26.508,88.31C26.246,88.284 25.957,88.231 25.631,88.231C25.329,88.231 25.016,88.271 24.727,88.31C24.831,85.73 24.845,85.442 24.845,82.915C24.845,81.199 24.845,81.015 24.753,79.326C25.054,79.352 25.395,79.391 26.063,79.391C26.403,79.391 27.923,79.326 28.224,79.326C29.075,79.326 29.717,79.431 30.28,79.968C30.673,80.348 30.883,80.885 30.883,81.434C30.883,82.888 29.795,83.635 28.603,83.857L28.97,84.381ZM26.456,83.425C26.704,83.438 27.018,83.465 27.359,83.465C28.669,83.465 29.154,82.509 29.154,81.657C29.154,81.107 29.062,80.636 28.603,80.295C28.25,80.033 27.818,79.968 27.386,79.968C27.136,79.968 26.652,80.02 26.456,80.033L26.456,83.425Z" style="fill:rgb(196,22,28);fill-rule:nonzero;"/>
                <path d="M34.665,83.216C35.333,83.216 36.8,83.202 37.494,83.124C37.454,83.268 37.428,83.399 37.428,83.596C37.428,83.779 37.454,83.949 37.494,84.041C37.153,84.015 36.813,83.989 36.486,83.975C35.883,83.962 35.267,83.949 34.665,83.949L34.665,87.498C35.005,87.498 36.682,87.459 37.795,87.407C37.743,87.525 37.73,87.656 37.73,87.839C37.73,88.035 37.743,88.166 37.795,88.31C37.009,88.258 36.223,88.231 35.385,88.231C34.6,88.231 33.775,88.258 32.936,88.31C32.962,87.761 32.988,87.223 33.002,86.673C33.028,85.914 33.053,84.316 33.053,83.714C33.053,83.163 33.028,80.636 32.936,79.326C33.578,79.365 34.6,79.405 35.307,79.405C35.909,79.405 36.773,79.352 37.716,79.326C37.677,79.483 37.651,79.588 37.651,79.745C37.651,79.942 37.677,80.125 37.716,80.23L36.486,80.164C36,80.138 35.87,80.138 34.665,80.138L34.665,83.216Z" style="fill:rgb(196,22,28);fill-rule:nonzero;"/>
                <path d="M45.967,87.564C45.05,88.153 44.199,88.31 43.125,88.31C42.326,88.31 41.514,88.245 40.715,88.245C40.309,88.245 39.89,88.284 39.484,88.31L39.563,85.914C39.576,85.338 39.576,85.049 39.576,83.491C39.576,82.666 39.589,81.854 39.549,81.029C39.523,80.466 39.51,79.903 39.484,79.326C39.837,79.352 40.204,79.391 40.557,79.391C41.265,79.391 42.037,79.326 42.824,79.326C43.937,79.326 45.325,79.379 46.411,80.23C47.421,81.015 47.918,82.194 47.918,83.556C47.918,85.403 47.198,86.778 45.967,87.564ZM41.186,85.73C41.186,86.333 41.226,86.948 41.252,87.551C41.54,87.564 42.706,87.616 43.033,87.616C43.897,87.616 46.124,86.974 46.124,83.609C46.124,81.919 45.325,80.02 42.601,80.02C42.155,80.02 41.698,80.046 41.252,80.086C41.226,80.609 41.186,81.147 41.186,81.67L41.186,85.73Z" style="fill:rgb(196,22,28);fill-rule:nonzero;"/>
            </g>
            <g>
                <path d="M12.942,96.102C12.942,94.871 12.929,93.64 12.916,92.422C13.021,92.435 13.125,92.448 13.23,92.448C13.335,92.448 13.426,92.435 13.531,92.422C14.775,93.797 15.941,95.015 17.526,96.56L19.071,98.08C19.32,98.316 19.438,98.407 19.726,98.643L19.726,95.735C19.726,94.623 19.661,93.496 19.57,92.422C19.726,92.462 19.896,92.501 20.132,92.501C20.368,92.501 20.525,92.462 20.682,92.422C20.564,94.007 20.538,94.937 20.538,96.849C20.538,97.608 20.551,99.494 20.551,100.176C20.551,100.464 20.564,101.145 20.564,101.472C20.473,101.459 20.381,101.446 20.302,101.446C20.21,101.446 20.119,101.459 20.027,101.472C18.364,99.664 15.143,96.456 13.754,95.186C13.754,96.967 13.767,97.922 13.794,99.311C13.806,100.071 13.819,100.202 13.912,101.406C13.767,101.393 13.505,101.328 13.322,101.328C13.125,101.328 12.956,101.367 12.798,101.406L12.903,99.586C12.929,99.233 12.942,98.25 12.942,97.883L12.942,96.102Z" style="fill:rgb(196,22,28);fill-rule:nonzero;"/>
                <path d="M32.166,96.796C32.166,99.717 30.188,101.59 27.281,101.59C24.557,101.59 22.395,99.979 22.395,97.111C22.395,93.784 24.675,92.318 27.319,92.318C29.769,92.318 32.166,93.653 32.166,96.796ZM27.281,100.922C29.506,100.922 30.371,98.826 30.371,96.954C30.371,94.819 29.573,92.985 27.281,92.985C25.028,92.985 24.19,95.159 24.19,96.954C24.19,98.905 25.028,100.922 27.281,100.922Z" style="fill:rgb(196,22,28);fill-rule:nonzero;"/>
            </g>
            <g>
                <path d="M37.388,99.612C37.388,100.607 37.441,101.04 37.48,101.406C37.1,101.367 36.681,101.328 36.524,101.328C36.301,101.328 36.105,101.354 35.633,101.406C35.686,100.411 35.764,99.403 35.764,98.407L35.751,94.753C35.751,94.269 35.738,93.81 35.725,93.3L35.069,93.3C34.953,93.3 33.695,93.326 33.027,93.391C33.067,93.234 33.092,93.064 33.092,92.907C33.092,92.749 33.067,92.579 33.027,92.422C34.061,92.488 35.515,92.501 36.524,92.501C37.61,92.501 38.763,92.488 40.02,92.422C39.982,92.645 39.955,92.815 39.955,92.92C39.955,93.064 39.982,93.182 40.02,93.391C39.248,93.312 38.319,93.3 37.414,93.3C37.401,93.771 37.388,94.269 37.388,94.767L37.388,99.612Z" style="fill:rgb(196,22,28);fill-rule:nonzero;"/>
                <path d="M41.342,92.422C41.591,92.448 42.075,92.501 42.271,92.501C42.56,92.501 42.887,92.462 43.201,92.422C43.058,93.391 43.058,95.657 43.058,96.98C43.058,98.931 43.083,100.346 43.189,101.406C42.887,101.393 42.572,101.328 42.271,101.328C41.983,101.328 41.616,101.393 41.328,101.406C41.473,99.848 41.473,97.687 41.473,95.448C41.473,94.623 41.473,93.692 41.342,92.422Z" style="fill:rgb(196,22,28);fill-rule:nonzero;"/>
                <path d="M52.774,94.255L52.644,94.255C52.486,93.941 52.027,93.025 50.141,93.025C47.954,93.025 46.789,94.465 46.789,96.94C46.789,97.399 46.789,98.617 47.588,99.678C48.059,100.293 48.767,100.869 49.958,100.869C51.57,100.869 52.395,100.071 52.984,99.377L53.128,99.468L52.984,100.765C51.989,101.315 50.863,101.59 49.67,101.59C47.116,101.59 44.995,100.005 44.995,97.058C44.995,94.426 46.606,92.318 50.103,92.318C51.177,92.318 52.12,92.501 53.168,92.972L52.774,94.255Z" style="fill:rgb(196,22,28);fill-rule:nonzero;"/>
                <path d="M56.361,96.312C57.029,96.312 58.496,96.299 59.189,96.22C59.15,96.364 59.124,96.495 59.124,96.692C59.124,96.875 59.15,97.045 59.189,97.137C58.849,97.111 58.509,97.084 58.181,97.072C57.579,97.058 56.963,97.045 56.361,97.045L56.361,100.595C56.701,100.595 58.378,100.555 59.491,100.503C59.439,100.621 59.425,100.751 59.425,100.935C59.425,101.131 59.439,101.263 59.491,101.406C58.705,101.354 57.919,101.328 57.081,101.328C56.295,101.328 55.471,101.354 54.632,101.406C54.658,100.856 54.684,100.32 54.697,99.769C54.724,99.01 54.749,97.412 54.749,96.81C54.749,96.259 54.724,93.732 54.632,92.422C55.274,92.462 56.295,92.501 57.002,92.501C57.605,92.501 58.469,92.448 59.412,92.422C59.372,92.579 59.347,92.684 59.347,92.842C59.347,93.038 59.372,93.221 59.412,93.326L58.181,93.261C57.696,93.234 57.566,93.234 56.361,93.234L56.361,96.312Z" style="fill:rgb(196,22,28);fill-rule:nonzero;"/>
            </g>
            <path d="M72.227,72.048L72.227,0L0.179,0L0.179,72.048L32.281,72.048L36.203,75.487L40.125,72.048L72.227,72.048Z" style="fill:rgb(196,22,28);fill-rule:nonzero;"/>
            <g>
                <path d="M52.317,48.573L39.422,48.573L39.422,48.295L52.317,48.295L52.317,48.573ZM45.872,50.567C43.537,50.567 41.583,49.674 40.392,48.957L51.359,48.957C50.164,49.674 48.21,50.567 45.872,50.567M36.302,47.109C32.96,47.109 29.766,46.236 27.055,44.586L28.648,41.881C30.758,43.3 33.418,44.148 36.302,44.148C39.183,44.148 41.842,43.3 43.955,41.881L45.545,44.586C42.835,46.236 39.644,47.109 36.302,47.109M37.041,50.909L36.492,51.739L36.492,47.49C36.714,47.487 36.936,47.481 37.158,47.473L37.041,50.909ZM36.108,51.739L35.559,50.909L35.443,47.473C35.665,47.481 35.886,47.487 36.108,47.49L36.108,51.739ZM33.179,48.573L20.283,48.573L20.283,48.295L33.179,48.295L33.179,48.573ZM26.728,50.567C24.39,50.567 22.436,49.674 21.245,48.957L32.212,48.957C31.017,49.674 29.063,50.567 26.728,50.567M23.548,43.34L23.75,43.48C24.149,43.741 24.666,43.946 25.289,44.088L25.127,44.194C24.996,44.282 24.882,44.356 24.806,44.395C24.433,44.58 24.052,44.66 24.049,44.66L23.637,44.742L23.969,44.998C24.919,45.735 25.792,46.028 26.538,46.108L26.538,47.911L21.859,47.911L23.548,43.34ZM21.811,41.059C22.351,41.034 23.514,41.059 24.888,41.546C25.736,41.847 26.404,42.22 26.899,42.552C26.725,42.643 26.606,42.823 26.606,43.033L26.515,42.982C26.176,42.8 25.829,42.641 25.468,42.507C25.107,42.379 24.732,42.274 24.348,42.237L25.343,42.783L26.33,43.32L26.6,43.463C26.302,43.539 26.023,43.665 25.775,43.798C25.013,43.665 24.402,43.448 23.961,43.158C22.954,42.493 22.229,41.637 21.811,41.059M21.637,37.331C21.865,37.447 22.2,37.598 22.653,37.726C22.86,37.786 23.051,37.848 23.233,37.925C23.324,38.087 23.5,38.198 23.702,38.198L23.748,38.195L23.93,38.326C23.969,38.562 24.163,38.747 24.405,38.773C24.521,38.9 24.641,39.043 24.763,39.208C24.82,39.293 24.871,39.381 24.925,39.472C25.113,40.172 25.528,40.812 26.02,41.366C25.932,41.29 25.844,41.213 25.755,41.136L24.678,40.195C24.316,39.879 23.958,39.563 23.602,39.233C23.833,39.663 24.143,40.044 24.464,40.408C24.754,40.732 25.064,41.036 25.389,41.324C25.269,41.278 25.144,41.23 25.016,41.184C24.496,41 24.009,40.877 23.568,40.8C22.786,40.035 21.865,38.844 21.637,37.331M23.881,37.658C23.881,37.78 23.782,37.877 23.662,37.877C23.543,37.877 23.443,37.78 23.443,37.658C23.443,37.538 23.543,37.439 23.662,37.439C23.782,37.439 23.881,37.538 23.881,37.658M24.635,38.198C24.635,38.32 24.535,38.417 24.416,38.417C24.296,38.417 24.197,38.32 24.197,38.198C24.197,38.079 24.296,37.982 24.416,37.982C24.535,37.982 24.635,38.079 24.635,38.198M24.811,38.645L24.811,38.653L24.808,38.65L24.811,38.645ZM21.501,32.527C21.705,32.788 22.007,33.15 22.368,33.548L22.362,33.619C22.362,33.918 22.607,34.159 22.903,34.159L22.954,34.156C23.275,34.475 23.628,34.791 23.995,35.078C24.166,36.036 24.487,36.952 24.934,37.811L24.902,37.925C24.806,37.786 24.643,37.695 24.461,37.695L24.285,37.723L24.242,37.669L24.242,37.658C24.242,37.399 24.06,37.183 23.816,37.129C23.58,36.821 23.352,36.503 23.139,36.176C22.886,35.786 22.647,35.388 22.459,34.95C22.47,35.189 22.53,35.425 22.604,35.655C22.678,35.886 22.772,36.11 22.877,36.327C23.031,36.634 23.207,36.927 23.403,37.211C23.301,37.277 23.224,37.376 23.187,37.496L23.102,37.464C21.939,35.88 21.41,34.262 21.501,32.527M23.022,33.522C23.022,33.642 22.926,33.738 22.803,33.738C22.684,33.738 22.587,33.642 22.587,33.522C22.587,33.4 22.684,33.303 22.803,33.303C22.926,33.303 23.022,33.4 23.022,33.522M23.307,27.385C23.418,27.521 23.585,27.757 23.773,28.11C23.62,28.443 23.509,28.809 23.494,29.202C23.466,30.078 23.634,30.786 24.06,31.489C23.984,31.844 23.927,32.205 23.893,32.569L23.813,32.379C23.671,32.023 23.557,31.654 23.452,31.278C23.346,30.9 23.255,30.516 23.145,30.129C23.096,30.53 23.105,30.934 23.156,31.338C23.207,31.739 23.304,32.137 23.455,32.521C23.56,32.783 23.691,33.036 23.853,33.269L23.85,33.448C23.85,33.807 23.873,34.162 23.912,34.515C23.705,34.338 23.506,34.156 23.315,33.969C23.395,33.875 23.443,33.753 23.443,33.619C23.443,33.32 23.201,33.079 22.903,33.079L22.832,33.084C22.402,31.944 21.686,29.296 23.307,27.385M23.878,29.213C23.912,28.26 24.612,27.447 24.988,27.009L25.127,26.844C25.19,26.764 25.255,26.688 25.318,26.611C25.448,26.455 25.573,26.304 25.676,26.156C25.773,26.412 25.895,26.847 25.952,27.507C25.693,27.837 25.457,28.181 25.241,28.536C25.249,28.448 25.255,28.357 25.261,28.269C25.266,28.093 25.269,27.916 25.258,27.723C25.121,27.862 25.033,28.033 24.965,28.206C24.899,28.38 24.857,28.559 24.837,28.738C24.814,28.92 24.811,29.1 24.834,29.282C24.572,29.811 24.359,30.365 24.2,30.934C23.952,30.408 23.856,29.862 23.878,29.213M26.873,42.88C26.873,42.76 26.973,42.663 27.092,42.663C27.212,42.663 27.311,42.76 27.311,42.88C27.311,43.002 27.212,43.099 27.092,43.099C26.973,43.099 26.873,43.002 26.873,42.88M28,45.994C28,45.872 28.099,45.775 28.219,45.775C28.338,45.775 28.438,45.872 28.438,45.994C28.438,46.113 28.338,46.21 28.219,46.21C28.099,46.21 28,46.113 28,45.994M28.187,46.531C28.486,46.531 28.728,46.29 28.728,45.994L28.716,45.894C29.518,46.255 30.352,46.56 31.208,46.799L31.62,47.911L26.922,47.911L26.922,46.128L26.967,46.13C27.215,46.13 27.445,46.108 27.653,46.073C27.692,46.332 27.917,46.531 28.187,46.531M26.634,44.779L26.358,44.794C26.114,44.811 25.869,44.825 25.61,44.868C25.844,44.981 26.091,45.052 26.341,45.095C26.595,45.138 26.851,45.152 27.106,45.135L27.189,45.112C27.434,45.254 27.681,45.388 27.934,45.516L27.758,45.664C26.979,45.829 25.852,45.835 24.521,44.927C24.658,44.879 24.817,44.819 24.979,44.737C25.076,44.688 25.192,44.612 25.34,44.515C25.773,44.228 26.401,43.815 27.089,43.773L26.535,44.717L26.634,44.779ZM27.872,42.242C27.872,42.362 27.775,42.461 27.653,42.461C27.533,42.461 27.436,42.362 27.436,42.242C27.436,42.123 27.533,42.023 27.653,42.023C27.775,42.023 27.872,42.123 27.872,42.242M27.653,41.676C27.453,41.676 27.277,41.787 27.183,41.949C26.435,41.315 25.591,40.408 25.303,39.364L25.3,39.361C25.209,39.026 25.175,38.679 25.221,38.323C25.989,39.609 27.052,40.744 28.329,41.662L28.142,41.984C28.054,41.802 27.869,41.676 27.653,41.676M36.302,23.132C42.954,23.132 48.367,27.76 48.367,33.448C48.367,33.804 48.344,34.159 48.304,34.506C48.244,34.654 47.949,34.725 48.048,34.922C48.099,34.811 48.244,34.691 48.293,34.586C47.835,38.147 45.247,41.167 41.646,42.695L41.592,42.717C41.509,42.726 41.384,42.715 41.39,42.626L41.239,42.541C41.185,42.41 40.952,42.436 40.935,42.268C40.636,42.168 40.659,42.157 40.389,42.109C40.167,42.069 39.991,41.998 39.763,41.975C39.527,41.952 38.984,42.271 38.702,42.319C38.6,42.336 38.617,42.285 38.54,42.208C38.216,41.87 37.584,42.075 36.905,42.359C36.72,42.436 36.467,42.592 36.248,42.589C35.767,42.581 35.451,42.268 34.808,42.24C34.612,42.228 34.771,42.715 34.703,42.914C34.604,42.877 34.314,42.749 34.314,42.749C34.314,42.749 34.026,42.723 33.915,42.7C33.785,42.672 33.694,42.635 33.674,42.661C33.492,42.877 33.33,42.291 32.991,42.271C32.837,42.052 32.547,41.824 32.314,41.571C32.183,41.429 31.893,40.732 31.885,40.931C31.859,41.46 32.365,41.702 32.337,42.109L32.235,42.089C32.232,42.14 32.089,42.183 32.115,42.302C31.956,42.331 31.612,42.336 31.56,42.424C31.464,42.589 31.174,42.663 30.96,42.695C26.979,41.008 24.234,37.498 24.234,33.448C24.234,27.76 29.646,23.132 36.302,23.132M26.333,23.059C28.779,21.332 31.725,20.291 34.88,20.041C34.928,20.632 34.962,21.443 34.962,22.558L34.962,22.811C32.311,23.056 29.905,24.02 28.014,25.47L26.333,23.059ZM35.022,18.553C35.355,18.559 35.716,18.565 36.108,18.565L36.108,22.751C35.852,22.754 35.599,22.766 35.349,22.78L35.349,22.558C35.349,20.558 35.235,19.182 35.022,18.553M37.596,18.553C37.382,19.182 37.269,20.558 37.269,22.558L37.269,22.78C37.013,22.766 36.754,22.754 36.492,22.751L36.492,18.565C36.89,18.565 37.26,18.559 37.596,18.553M32.837,18.081L32.837,17.814C33.227,17.788 34.251,17.729 35.724,17.717L36.893,17.717C38.367,17.729 39.388,17.788 39.78,17.814L39.78,18.081C39.348,18.11 38.133,18.181 36.307,18.181C34.484,18.181 33.27,18.11 32.837,18.081M37.272,17.333L36.893,17.333C36.518,17.33 36.1,17.33 35.724,17.333L35.346,17.333C35.42,17.023 35.485,16.446 35.485,15.354L35.485,12.04C35.77,12.06 36.094,12.077 36.307,12.077C36.521,12.077 36.848,12.06 37.132,12.04L37.132,15.354C37.132,16.446 37.198,17.023 37.272,17.333M35.099,11.625L35.099,11.386C35.363,11.363 35.875,11.326 36.307,11.326C36.74,11.326 37.254,11.363 37.516,11.386L37.516,11.625C37.22,11.648 36.623,11.693 36.307,11.693C35.995,11.693 35.394,11.648 35.099,11.625M36.307,10.43C36.495,10.43 36.654,10.547 36.654,10.686C36.654,10.823 36.495,10.942 36.307,10.942C36.12,10.942 35.963,10.823 35.963,10.686C35.963,10.547 36.12,10.43 36.307,10.43M46.268,22.996L44.561,25.45C42.678,24.014 40.289,23.059 37.653,22.814L37.653,22.558C37.653,21.44 37.69,20.627 37.738,20.035C40.878,20.271 43.819,21.292 46.268,22.996M46.925,26.156C47.027,26.304 47.152,26.455 47.283,26.611C47.348,26.688 47.411,26.764 47.474,26.844L47.613,27.009C47.988,27.447 48.688,28.26 48.722,29.213C48.745,29.862 48.645,30.408 48.401,30.931C48.241,30.362 48.028,29.811 47.766,29.282C47.789,29.1 47.786,28.92 47.766,28.738C47.744,28.559 47.701,28.38 47.636,28.206C47.567,28.033 47.482,27.862 47.343,27.723C47.331,27.916 47.334,28.093 47.34,28.269C47.346,28.357 47.351,28.448 47.36,28.536C47.144,28.181 46.908,27.837 46.649,27.507C46.706,26.847 46.828,26.412 46.925,26.156M49.294,27.385C50.915,29.296 50.198,31.944 49.769,33.084L49.698,33.079C49.399,33.079 49.157,33.32 49.157,33.619C49.157,33.753 49.206,33.875 49.285,33.969C49.095,34.156 48.896,34.338 48.688,34.515C48.731,34.162 48.751,33.807 48.751,33.448L48.748,33.269C48.91,33.036 49.041,32.783 49.146,32.521C49.297,32.137 49.393,31.739 49.445,31.338C49.496,30.934 49.504,30.53 49.456,30.129C49.345,30.516 49.254,30.9 49.149,31.278C49.044,31.654 48.93,32.023 48.788,32.379L48.708,32.569C48.674,32.205 48.617,31.844 48.54,31.489C48.967,30.786 49.135,30.078 49.106,29.202C49.092,28.809 48.981,28.443 48.827,28.11C49.015,27.757 49.183,27.521 49.294,27.385M49.578,33.522C49.578,33.4 49.675,33.303 49.797,33.303C49.917,33.303 50.013,33.4 50.013,33.522C50.013,33.642 49.917,33.738 49.797,33.738C49.675,33.738 49.578,33.642 49.578,33.522M50.232,33.548C50.594,33.15 50.895,32.788 51.1,32.527C51.191,34.262 50.662,35.88 49.499,37.464L49.413,37.496C49.376,37.376 49.299,37.277 49.197,37.211C49.393,36.927 49.57,36.634 49.723,36.327C49.829,36.11 49.922,35.886 49.999,35.655C50.07,35.425 50.13,35.189 50.141,34.95C49.954,35.388 49.715,35.786 49.462,36.176C49.248,36.503 49.021,36.821 48.785,37.129C48.54,37.183 48.358,37.399 48.358,37.658L48.358,37.669L48.315,37.723L48.139,37.695C47.957,37.695 47.795,37.786 47.698,37.925L47.667,37.811C48.116,36.952 48.435,36.036 48.606,35.078C48.972,34.791 49.325,34.475 49.647,34.156L49.698,34.159C49.996,34.159 50.238,33.918 50.238,33.619L50.232,33.548ZM48.719,37.658C48.719,37.538 48.819,37.439 48.938,37.439C49.058,37.439 49.157,37.538 49.157,37.658C49.157,37.78 49.058,37.877 48.938,37.877C48.819,37.877 48.719,37.78 48.719,37.658M47.968,38.198C47.968,38.079 48.065,37.982 48.185,37.982C48.307,37.982 48.404,38.079 48.404,38.198C48.404,38.32 48.307,38.417 48.185,38.417C48.065,38.417 47.968,38.32 47.968,38.198M47.789,38.645L47.795,38.65L47.789,38.653L47.789,38.645ZM50.963,37.331C50.736,38.844 49.814,40.035 49.032,40.8C48.591,40.877 48.105,41 47.584,41.184C47.456,41.23 47.331,41.278 47.212,41.324C47.536,41.036 47.846,40.732 48.136,40.408C48.458,40.044 48.768,39.663 48.998,39.233C48.642,39.563 48.284,39.879 47.926,40.195L46.848,41.136C46.757,41.213 46.669,41.29 46.58,41.366C47.073,40.812 47.488,40.172 47.678,39.472C47.73,39.381 47.784,39.293 47.838,39.208C47.963,39.043 48.079,38.9 48.196,38.773C48.438,38.747 48.631,38.562 48.671,38.326L48.853,38.195L48.898,38.198C49.1,38.198 49.277,38.087 49.368,37.925C49.55,37.848 49.74,37.786 49.948,37.726C50.4,37.598 50.736,37.447 50.963,37.331M50.79,41.059C50.372,41.637 49.649,42.493 48.64,43.158C48.199,43.448 47.587,43.665 46.825,43.798C46.578,43.665 46.299,43.539 46,43.463L46.27,43.32L47.257,42.783L48.253,42.237C47.869,42.274 47.493,42.379 47.132,42.507C46.774,42.641 46.424,42.8 46.088,42.982L45.995,43.033C45.995,42.823 45.875,42.643 45.702,42.552C46.197,42.22 46.865,41.847 47.712,41.546C49.086,41.059 50.249,41.034 50.79,41.059M45.508,42.663C45.628,42.663 45.727,42.76 45.727,42.88C45.727,43.002 45.628,43.099 45.508,43.099C45.389,43.099 45.292,43.002 45.292,42.88C45.292,42.76 45.389,42.663 45.508,42.663M45.164,42.242C45.164,42.362 45.067,42.461 44.948,42.461C44.826,42.461 44.729,42.362 44.729,42.242C44.729,42.123 44.826,42.023 44.948,42.023C45.067,42.023 45.164,42.123 45.164,42.242M44.948,41.676C44.732,41.676 44.547,41.802 44.462,41.984L44.271,41.662C45.551,40.744 46.612,39.609 47.38,38.323C47.425,38.679 47.391,39.026 47.3,39.361L47.297,39.364C47.01,40.408 46.165,41.315 45.417,41.949C45.323,41.787 45.147,41.676 44.948,41.676M44.843,45.664L44.666,45.516C44.919,45.385 45.167,45.254 45.412,45.112L45.494,45.135C45.75,45.152 46.006,45.138 46.259,45.095C46.509,45.052 46.757,44.981 46.99,44.868C46.731,44.825 46.487,44.811 46.242,44.794L45.966,44.779L46.066,44.717L45.511,43.773C46.199,43.815 46.828,44.228 47.26,44.515C47.408,44.612 47.525,44.688 47.624,44.737C47.784,44.819 47.943,44.879 48.079,44.927C46.748,45.835 45.622,45.829 44.843,45.664M44.163,45.994C44.163,45.872 44.262,45.775 44.382,45.775C44.501,45.775 44.601,45.872 44.601,45.994C44.601,46.113 44.501,46.21 44.382,46.21C44.262,46.21 44.163,46.113 44.163,45.994M44.413,46.531C44.686,46.531 44.908,46.332 44.948,46.073C45.156,46.108 45.386,46.13 45.633,46.13L45.679,46.128L45.679,47.911L40.98,47.911L41.393,46.799C42.249,46.56 43.082,46.255 43.884,45.894L43.873,45.994C43.873,46.29 44.115,46.531 44.413,46.531M50.741,47.911L46.063,47.911L46.063,46.108C46.808,46.028 47.684,45.735 48.631,44.998L48.964,44.742L48.551,44.66C48.549,44.66 48.168,44.58 47.795,44.395C47.718,44.356 47.604,44.282 47.474,44.194L47.311,44.088C47.937,43.946 48.452,43.741 48.85,43.48L49.052,43.34L50.741,47.911ZM32.408,18.781L32.141,18.781C32.124,18.582 32.101,18.241 32.101,17.948C32.101,17.657 32.124,17.313 32.141,17.111L32.408,17.111C32.425,17.342 32.454,17.734 32.454,17.948C32.454,18.161 32.425,18.556 32.408,18.781M31.489,18.278C31.37,18.278 31.265,18.127 31.265,17.948C31.265,17.768 31.37,17.62 31.489,17.62C31.612,17.62 31.717,17.768 31.717,17.948C31.717,18.127 31.612,18.278 31.489,18.278M40.21,17.111L40.477,17.111C40.494,17.313 40.517,17.657 40.517,17.948C40.517,18.241 40.494,18.582 40.477,18.781L40.21,18.781C40.192,18.556 40.164,18.161 40.164,17.948C40.164,17.734 40.192,17.342 40.21,17.111M41.125,17.62C41.248,17.62 41.35,17.768 41.35,17.948C41.35,18.127 41.248,18.278 41.125,18.278C41.003,18.278 40.901,18.127 40.901,17.948C40.901,17.768 41.003,17.62 41.125,17.62M51.151,47.911L49.373,43.099C50.323,42.351 50.972,41.492 51.296,41.002L51.464,40.749L51.165,40.704C51.125,40.698 50.545,40.618 49.649,40.712C50.699,39.563 51.296,38.281 51.387,36.978L51.416,36.554L51.08,36.813C51.074,36.816 50.753,37.058 50.102,37.277C51.219,35.593 51.657,33.858 51.441,31.995L51.384,31.503L51.094,31.904C51.088,31.912 50.744,32.385 50.21,32.993C50.676,31.648 51.273,28.926 49.436,26.966L49.308,26.827L49.166,26.955C49.154,26.966 48.913,27.191 48.614,27.706C48.369,27.302 48.091,26.972 47.906,26.759L47.775,26.602C47.71,26.523 47.644,26.443 47.579,26.363C47.368,26.113 47.169,25.874 47.104,25.675L46.987,25.334L46.768,25.621C46.751,25.641 46.45,26.048 46.307,27.092C45.875,26.588 45.392,26.119 44.863,25.689L46.799,22.902L46.646,22.791C44.112,20.982 41.049,19.902 37.775,19.654C37.857,18.915 37.96,18.639 38.008,18.542C38.901,18.519 39.513,18.485 39.803,18.465C39.817,18.73 39.84,18.974 39.84,18.991L39.857,19.168L40.827,19.168L40.844,18.994C40.847,18.98 40.861,18.818 40.875,18.596C40.952,18.639 41.037,18.661 41.125,18.661C41.461,18.661 41.734,18.34 41.734,17.948C41.734,17.555 41.461,17.234 41.125,17.234C41.037,17.234 40.952,17.259 40.875,17.299C40.861,17.077 40.847,16.915 40.844,16.901L40.827,16.727L39.857,16.727L39.84,16.904C39.84,16.921 39.817,17.165 39.803,17.43C39.476,17.41 38.733,17.367 37.673,17.345C37.627,17.211 37.516,16.753 37.516,15.354L37.516,12.012C37.636,12.003 37.715,11.995 37.727,11.995L37.9,11.98L37.9,11.036L37.727,11.019C37.707,11.016 37.371,10.985 36.967,10.962C37.013,10.877 37.038,10.783 37.038,10.686C37.038,10.334 36.711,10.046 36.307,10.046C35.906,10.046 35.579,10.334 35.579,10.686C35.579,10.783 35.605,10.877 35.65,10.962C35.244,10.985 34.911,11.016 34.888,11.019L34.715,11.036L34.715,11.981L34.891,11.995C34.902,11.995 34.982,12.003 35.099,12.012L35.099,15.354C35.099,16.753 34.991,17.211 34.942,17.345C33.884,17.367 33.142,17.41 32.815,17.43C32.798,17.165 32.778,16.921 32.775,16.904L32.761,16.727L31.788,16.727L31.771,16.901C31.771,16.915 31.754,17.077 31.74,17.299C31.666,17.259 31.58,17.234 31.489,17.234C31.154,17.234 30.881,17.555 30.881,17.948C30.881,18.34 31.154,18.661 31.489,18.661C31.58,18.661 31.666,18.639 31.74,18.596C31.754,18.818 31.771,18.98 31.771,18.994L31.788,19.168L32.761,19.168L32.775,18.991C32.778,18.974 32.798,18.73 32.815,18.465C33.102,18.485 33.716,18.519 34.609,18.542C34.658,18.639 34.76,18.917 34.843,19.66C31.555,19.921 28.486,21.025 25.955,22.859L25.801,22.97L27.712,25.709C27.195,26.133 26.72,26.597 26.293,27.092C26.151,26.048 25.849,25.641 25.832,25.621L25.613,25.334L25.497,25.675C25.431,25.874 25.232,26.113 25.022,26.363C24.956,26.443 24.891,26.523 24.825,26.602L24.695,26.759C24.513,26.972 24.231,27.302 23.986,27.706C23.688,27.191 23.446,26.966 23.435,26.955L23.295,26.827L23.164,26.966C21.327,28.926 21.924,31.648 22.391,32.993C21.856,32.385 21.512,31.912 21.506,31.904L21.216,31.503L21.159,31.995C20.943,33.858 21.381,35.593 22.502,37.277C21.85,37.058 21.526,36.816 21.521,36.813L21.185,36.554L21.213,36.978C21.304,38.281 21.902,39.563 22.951,40.712C22.055,40.618 21.475,40.698 21.435,40.704L21.137,40.749L21.304,41.002C21.629,41.492 22.277,42.351 23.227,43.099L21.449,47.911L19.899,47.911L19.899,48.957L20.528,48.957C21.654,49.717 23.924,50.951 26.728,50.951C29.53,50.948 31.797,49.72 32.926,48.957L33.563,48.957L33.563,47.911L32.03,47.911L31.663,46.921C32.764,47.197 33.898,47.376 35.059,47.453L35.181,51.028L36.302,52.689L37.419,51.028L37.542,47.453C38.702,47.376 39.84,47.197 40.938,46.921L40.571,47.911L39.038,47.911L39.038,48.957L39.675,48.957C40.804,49.72 43.071,50.948 45.872,50.951C48.677,50.951 50.946,49.717 52.073,48.957L52.701,48.957L52.701,47.911L51.151,47.911ZM46.026,39.418C45.986,39.415 45.946,39.449 45.847,39.418L45.753,39.319L45.764,39.509C45.727,39.62 45.69,39.683 45.545,39.717C45.605,39.822 45.605,39.922 45.577,39.987C45.83,39.748 46.026,39.506 46.026,39.418M31.597,25.527C31.757,25.561 32.007,25.502 32.064,25.433C32.007,25.502 31.757,25.561 31.595,25.527L31.597,25.527ZM27.021,30.559C26.814,31.062 27.3,31.332 27.311,31.821C27.436,31.87 27.374,31.733 27.473,31.759C27.507,31.875 27.587,31.947 27.604,32.083C27.678,32.137 27.855,32.094 27.897,32.18C27.891,32.35 27.84,32.447 27.897,32.601C27.98,32.669 28.145,32.658 28.253,32.697C28.261,32.8 28.324,32.845 28.352,32.925C28.25,33.096 28.19,33.306 28.091,33.477C28.199,33.755 28.065,34.145 28.125,34.449C28.19,34.799 28.577,35.123 28.577,35.618C29.1,35.78 29.083,36.477 29.356,36.884C29.325,37.524 29.698,37.851 29.584,38.474C29.752,38.784 29.783,39.185 30.07,39.415C30.369,39.651 30.958,40.371 30.849,40.098C30.781,40.015 30.44,39.179 30.46,38.636C30.474,38.306 30.684,37.948 30.818,37.598C31.057,36.972 30.864,36.617 31.378,36.432L31.467,36.398L31.441,36.341C31.162,35.661 31.836,35.146 31.725,34.646C31.663,34.356 31.43,34.006 31.364,33.946C31.302,33.889 31.12,33.955 30.849,33.932C30.673,33.599 30.261,33.502 30.266,32.99C30.101,32.885 29.871,32.842 29.877,32.569C29.609,32.621 29.544,32.305 29.325,32.211C29.188,32.248 29.097,32.333 29.001,32.407C28.779,32.291 28.574,32.373 28.384,32.504C28.267,32.481 28.207,32.399 28.125,32.342C28.128,32.043 28.204,31.813 28.025,31.628C28.073,31.395 28.199,31.19 28.025,31.045C27.852,31.019 27.92,31.241 27.701,31.173C27.564,30.8 28.068,30.539 28.025,30.135C28.23,30.089 28.492,30.101 28.676,30.038C28.807,30.109 28.807,30.419 28.676,30.493C28.705,30.539 28.725,30.596 28.804,30.59C29.021,30.433 28.918,30.186 29.001,29.973C29.08,29.757 29.399,29.594 29.552,29.356C29.595,29.287 29.575,29.182 29.615,29.128C29.641,29.1 29.752,29.102 29.811,29.031L29.877,28.869C30.027,28.738 30.329,28.65 30.525,28.545C30.656,28.474 30.738,28.386 30.946,28.352C31.077,28.155 31,27.754 31.304,27.734C31.267,27.888 31.313,27.933 31.27,28.09C31.691,27.973 31.484,27.424 31.822,27.214C31.731,26.836 32.01,26.71 32.146,26.469C32.041,26.383 31.708,26.378 31.856,26.144C32.035,26.082 31.97,26.267 32.084,26.275C32.3,26.253 32.3,26.014 32.439,25.917C32.553,25.9 32.519,26.034 32.633,26.014C32.692,25.823 32.678,25.561 32.764,25.396C32.371,25.342 32.391,25.974 31.919,25.948C31.347,26.318 31.211,27.12 30.687,27.541C30.647,27.313 30.505,27.032 30.525,26.858C30.537,26.75 30.71,26.432 30.818,26.338C30.903,26.264 31.074,26.272 31.174,26.21C31.361,26.093 31.41,25.914 31.563,25.852C32.155,25.897 32.348,25.487 32.633,25.106C32.436,24.947 32.226,25.132 32.05,25.237C32.072,25.149 31.984,25.172 31.953,25.138C31.845,25.038 32.081,24.967 31.984,24.879C31.845,25.106 31.469,25.101 31.27,25.268C31.216,25.382 31.341,25.63 31.108,25.624C31.014,25.522 31.182,25.482 31.205,25.396C30.975,25.177 30.699,25.194 30.428,25.365C30.42,25.237 30.565,25.266 30.556,25.138C30.48,25.098 30.386,25.072 30.329,25.01C30.153,25.084 29.999,25.305 29.78,25.237C29.783,25.212 29.638,25.146 29.527,25.098L29.348,25.2C29.319,25.348 29.271,25.57 29.291,25.689C28.733,25.672 28.659,26.139 28.19,26.21C28.338,26.463 28.765,25.968 29.001,26.21C28.628,26.705 28.409,27.348 27.863,27.669C27.746,28.158 27.36,28.377 27.087,28.707C27.03,29.25 26.942,29.592 26.759,29.973C26.842,30.175 26.856,30.439 27.021,30.559M44.538,40.519C44.558,40.542 44.692,40.596 44.766,40.579C44.931,40.544 45.019,40.405 45.167,40.274L45.357,40.215L45.403,40.146C45.454,40.084 45.486,40.109 45.449,39.967C45.116,40.121 44.809,40.3 44.538,40.519M38.017,28.286C38.17,28.295 38.148,28.479 38.276,28.514C38.406,28.502 38.406,28.36 38.568,28.383C38.634,28.545 38.688,28.718 38.893,28.741C38.907,28.863 38.83,28.892 38.796,28.966C38.512,28.781 38.233,29.009 37.954,28.935C38.125,28.801 37.96,28.465 38.017,28.286M39.672,28.352C39.737,28.448 39.669,28.679 39.737,28.772C39.74,28.889 39.951,28.798 39.996,28.869C39.993,29.04 40.028,29.27 40.03,29.518C39.723,29.575 39.581,29.395 39.479,29.128C39.308,28.69 39.134,28.164 39.672,28.352M34.999,27.962C34.996,28.124 35.229,28.056 35.292,28.155C35.335,28.394 35.192,28.445 35.096,28.545C34.968,28.514 34.845,28.474 34.74,28.417C34.501,28.613 34.461,29.065 34.706,29.293C34.871,29.242 35.173,29.162 35.292,29.259C35.34,29.179 35.355,29.063 35.357,28.935C35.687,28.849 35.884,28.42 36.265,28.448C36.529,28.468 36.708,28.755 36.882,28.966C36.905,29.088 36.825,29.105 36.848,29.227C36.973,29.199 37.018,29.091 37.075,29C37.007,28.733 36.794,28.613 36.72,28.352C36.905,28.403 37.001,28.534 37.175,28.514C37.081,28.983 37.553,28.989 37.53,29.293C37.71,29.222 37.619,28.883 37.92,28.935C37.909,29.185 38.02,29.31 38.148,29.421C38.315,29.415 38.332,29.259 38.537,29.293C38.659,29.407 38.58,29.725 38.603,29.941C38.489,30.115 38.276,29.984 38.148,30.135C37.968,30.132 37.934,29.981 37.789,29.941C37.309,30.237 37.067,29.759 36.558,29.745C36.481,29.637 36.495,29.441 36.361,29.39C36.134,29.429 35.889,29.495 35.713,29.356C35.488,29.509 35.056,29.555 34.74,29.518C34.328,29.722 34.251,30.263 33.768,30.394C33.668,30.908 32.951,31.722 33.344,32.245C33.438,32.367 33.551,32.399 33.603,32.535C33.659,32.683 33.566,32.848 33.702,32.99C34.103,33.266 34.925,33.346 35.389,33.056C35.756,33.187 36.029,33.121 36.427,33.187C36.407,33.346 36.501,33.394 36.524,33.511C36.455,33.642 36.376,33.713 36.361,33.835C36.31,34.299 36.799,34.432 36.848,34.97C36.89,35.405 36.592,35.889 36.589,36.204C36.589,36.327 36.703,36.457 36.72,36.591C36.757,36.927 36.566,37.376 36.882,37.567C36.899,37.831 36.981,38.027 37.109,38.184C37.365,38.007 37.641,38.059 37.889,37.956C38.327,37.774 38.426,37.225 38.765,36.949C38.659,36.125 39.507,35.911 39.444,35.197C39.43,35.044 39.322,34.967 39.282,34.777C39.618,34.006 40.175,33.462 40.483,32.666C40.349,32.512 40.05,32.695 39.803,32.635C39.231,32.146 39.001,31.315 38.699,30.559C38.964,30.567 39.052,30.911 39.024,31.108C39.24,31.509 39.538,31.827 39.672,32.311C40.056,32.208 40.77,31.978 40.841,31.597C40.852,31.534 40.83,31.278 40.807,31.207C40.77,31.079 40.699,31.014 40.582,30.914C40.534,30.997 40.494,31.088 40.386,31.108C40.187,30.94 39.942,30.647 39.996,30.331C40.292,30.283 40.235,30.587 40.355,30.718C40.517,30.741 40.505,30.59 40.679,30.621C40.733,30.732 40.787,30.837 40.841,30.945C41.228,30.707 41.626,30.874 41.62,31.369C41.654,31.443 41.717,31.486 41.814,31.497C41.987,32.06 42.297,32.484 42.559,32.959C42.67,32.874 42.641,32.649 42.755,32.569C42.474,32.123 42.894,31.693 43.145,31.4C43.332,31.494 43.361,31.747 43.6,31.79C43.608,31.864 43.594,31.915 43.566,31.952C43.62,32.015 43.716,32.04 43.824,32.049C43.881,32.382 43.898,32.757 44.117,32.925C44.075,33.187 44.135,33.374 44.183,33.639C44.086,33.647 44.083,33.568 43.987,33.576C44.137,34.043 44.191,34.603 44.507,34.904C44.615,34.393 44.325,34.142 44.214,33.704C44.39,33.77 44.356,33.445 44.345,33.349C44.311,33.087 43.97,32.723 44.086,32.473C44.274,32.464 44.166,32.757 44.28,32.828C44.948,32.572 44.285,31.921 44.052,31.628C44.109,31.295 44.604,31.4 44.701,31.108C44.681,30.803 44.615,30.789 44.701,30.524C44.678,30.396 44.547,30.377 44.507,30.266C44.598,29.685 44.223,29.401 44.086,29.162C44.385,29 44.348,29.523 44.604,29.617C44.746,29.503 44.609,29.174 44.442,29.162C44.416,28.73 44.117,28.135 44.021,27.572C43.756,27.512 43.571,27.373 43.469,27.148C43.076,27.197 43.048,26.875 42.852,26.727C42.815,26.622 42.894,26.355 42.82,26.21C43.082,26.312 43.199,26.568 43.307,26.824C43.614,27.046 43.987,27.202 44.28,27.441C44.262,27.308 44.066,27.072 43.987,26.89C43.651,26.85 43.668,26.455 43.273,26.469C43.17,26.332 43.389,26.005 43.224,25.789C43.031,25.539 43.241,25.3 43.233,25.177C43.216,24.97 42.86,24.984 42.607,24.796C42.51,24.725 41.927,24.739 41.956,24.756C41.822,24.728 41.757,24.973 41.652,24.975C41.592,24.904 41.555,24.813 41.455,24.782C41.259,24.853 41.151,25.015 41.034,25.172C40.741,24.95 40.414,25.012 40.289,25.334C39.945,25.322 39.621,24.995 39.316,25.237C39.2,25.021 38.915,24.822 38.699,24.975C38.702,25.115 38.753,25.203 38.731,25.365C38.679,25.422 38.594,25.445 38.472,25.431C38.432,25.564 38.44,25.746 38.31,25.786C38.25,25.726 38.25,25.76 38.276,25.658C38.221,25.615 38.096,25.684 38.017,25.624C37.968,25.502 38.162,25.618 38.116,25.496L37.92,25.462C38.025,25.815 37.65,26.025 37.53,26.338C37.442,26.173 37.601,26.008 37.661,25.886C37.499,25.681 37.087,25.857 36.947,25.593C36.205,25.541 36.384,26.415 35.909,26.631L35.975,26.89C36.168,26.901 36.219,26.77 36.396,26.759C36.487,26.844 36.441,27.06 36.558,27.117C36.629,27.08 36.688,27.035 36.816,27.052C36.757,26.895 36.7,26.739 36.623,26.6C36.728,26.5 36.728,26.292 36.882,26.241C37.158,26.548 37.206,27.422 36.589,27.475C36.498,27.339 36.401,27.319 36.265,27.183C36.222,27.282 36.196,27.396 36.134,27.475C35.895,27.547 35.65,27.618 35.551,27.831C35.318,27.675 35.227,27.933 34.999,27.962M44.865,39.481C44.766,39.503 44.746,39.447 44.669,39.449C44.632,39.595 44.464,39.612 44.473,39.805C44.712,39.805 44.723,39.577 44.865,39.481M25.821,36.918L25.821,36.787C25.719,36.804 25.687,36.711 25.659,36.821C25.716,36.85 25.699,36.952 25.821,36.918M40.417,36.398L40.386,36.529C40.471,36.537 40.525,36.517 40.517,36.429L40.417,36.398ZM44.373,37.058C44.251,37.277 44.066,37.655 44.041,37.831C43.987,38.17 43.958,37.97 43.958,38.352C44.299,38.491 44.291,38.229 44.669,38.303C44.988,38.519 44.9,38.906 44.831,39.242C45.238,39.193 45.406,38.889 45.642,38.69C45.969,38.349 46.541,37.544 46.302,36.844C46.515,36.486 46.504,35.846 46.401,35.846C46.401,35.846 46.222,36.398 46.1,36.529C46.1,36.529 45.983,36.338 45.838,36.355C45.892,36.136 46.077,36.088 45.966,35.803C45.892,35.803 45.815,35.823 45.716,35.846C45.477,36.295 45.426,36.139 45.124,36.258C45.079,36.668 44.632,36.841 44.373,37.058M40.417,35.943C40.34,35.803 40.454,35.473 40.255,35.456C40.153,35.786 39.871,35.937 39.607,36.105C39.567,36.531 39.467,36.87 39.607,37.242C39.931,36.972 40.113,36.557 40.192,36.042L40.417,35.943ZM47.201,35.425C47.121,35.411 47.129,35.485 47.038,35.456C47.084,35.601 47.055,35.692 47.038,35.846C47.198,35.741 47.107,35.587 47.201,35.425M45.19,35.425L45.19,35.556C45.269,35.587 45.71,35.624 45.611,35.425C45.508,35.476 45.306,35.402 45.19,35.425M45.383,35.36C45.486,35.374 45.511,35.314 45.577,35.294C45.571,35.206 45.474,35.203 45.449,35.132C45.406,35.186 45.363,35.24 45.383,35.36M45.09,35.36C44.905,35.203 44.74,34.813 44.442,34.97C44.487,35.283 44.789,35.397 45.09,35.36M45.838,34.904L45.707,34.842C45.574,34.947 45.852,35.098 45.838,34.904M46.617,35.035C46.677,35.061 46.734,35.089 46.811,35.101C46.762,34.947 46.851,34.788 46.842,34.515C46.782,34.501 46.762,34.447 46.68,34.449C46.615,34.731 46.74,34.816 46.617,35.035M46.097,35.556C46.279,35.55 46.216,35.308 46.421,35.328C46.546,35.385 46.472,35.644 46.617,35.684C46.714,35.348 46.444,35.035 46.487,34.549C46.268,34.509 46.131,34.492 45.966,34.353C46.026,34.759 46.236,35.135 46.097,35.556M46.649,34.353C46.62,34.219 46.572,34.105 46.455,34.063C46.475,34.211 46.472,34.307 46.649,34.353M45.838,34.484C45.804,34.276 45.918,34.122 45.741,33.966C45.662,34.142 45.719,34.273 45.676,34.449C45.753,34.438 45.747,34.509 45.838,34.484M45.414,33.932C45.138,34.097 45.136,34.538 45.09,34.939C45.244,34.961 45.303,34.89 45.383,34.842C45.312,34.429 45.403,34.324 45.48,33.966L45.414,33.932ZM44.928,34.614L45.059,34.58C44.971,34.205 45.343,33.892 45.187,33.445L45.09,33.445C45.07,33.664 44.786,33.65 44.735,33.9C44.689,34.125 44.797,34.447 44.928,34.614M42.755,32.828C42.769,32.965 42.601,33.15 42.755,33.218C42.835,33.155 42.883,33.064 42.917,32.959C42.823,32.953 42.86,32.82 42.755,32.828M45.383,33.315C45.596,33.329 45.65,32.891 45.514,32.763C45.431,32.919 45.272,33.061 45.383,33.315M45.059,31.856C45.093,32.148 45.207,32.461 45.383,32.697C45.412,32.447 45.423,31.813 45.059,31.856M44.248,31.693L44.442,31.693C44.47,31.523 44.39,31.463 44.248,31.466C44.183,31.526 44.231,31.619 44.248,31.693M28.804,31.466C28.782,31.585 28.856,31.608 28.967,31.597C28.961,31.503 28.91,31.457 28.804,31.466M29.097,31.597C29.26,31.659 29.291,31.543 29.453,31.531C29.453,31.363 29.277,31.295 29.129,31.369C28.961,31.278 28.893,31.088 28.773,30.948C28.64,30.943 28.523,30.957 28.449,31.011C28.637,31.042 28.776,31.136 28.839,31.369C28.921,31.338 29.021,31.315 29.066,31.4C29.06,31.48 29.06,31.557 29.097,31.597M44.993,31.335C45.045,31.173 44.971,31.088 45.059,30.883C44.971,30.906 44.993,30.817 44.928,30.817C44.891,30.923 44.874,31.042 44.831,31.142C44.885,31.204 44.908,31.304 44.993,31.335M38.406,29.552C38.429,29.438 38.293,29.435 38.244,29.486C38.256,29.6 38.33,29.569 38.406,29.552M37.951,29.421C37.832,29.464 37.729,29.324 37.661,29.421C37.715,29.466 37.92,29.549 37.951,29.421M45.156,30.135C45.198,29.941 45.053,29.936 45.059,29.779C45.309,29.563 45.121,29.176 44.928,29.031C45.17,29.412 44.55,30.032 45.156,30.135M44.766,28.676C44.624,28.582 44.809,28.363 44.669,28.286C44.664,28.377 44.447,28.258 44.442,28.352C44.584,28.406 44.607,28.747 44.766,28.676M34.871,27.313L34.706,27.313C34.692,27.387 34.644,27.478 34.706,27.541L34.837,27.541C34.791,27.399 34.948,27.39 34.871,27.313M35.227,27.086C35.207,27.006 35.346,26.833 35.195,26.824C34.811,27.049 35.337,27.379 35.13,27.703C35.269,27.669 35.389,27.615 35.52,27.572C35.52,27.313 35.261,27.311 35.227,27.086M34.484,25.886C34.419,25.937 34.379,26.016 34.388,26.144C34.595,26.19 34.834,26.161 34.84,25.917C34.68,25.815 34.604,26.005 34.484,25.886M37.92,25.3C37.929,25.194 37.88,25.143 37.789,25.138C37.809,25.217 37.818,25.305 37.92,25.3M39.996,25.172C40.119,25.194 40.153,25.132 40.255,25.138L40.255,25.01C40.181,25.018 40.136,25.061 40.03,25.041L39.996,25.172ZM33.088,24.848C32.951,24.742 32.801,24.816 32.829,25.041C33,25.061 33.002,24.913 33.088,24.848M39.672,24.975C39.891,24.998 40.013,24.93 40.062,24.782C39.928,24.728 39.76,24.825 39.641,24.813C39.612,24.904 39.686,24.899 39.672,24.975M32.439,24.685C32.326,24.711 32.289,24.813 32.246,24.91C32.351,24.879 32.436,24.822 32.439,24.685M32.311,24.62L32.246,24.52L32.115,24.62L32.311,24.62ZM33.315,24.424C33.216,24.381 33.059,24.557 33.056,24.717C33.227,24.702 33.304,24.597 33.315,24.424M32.536,24.975C32.658,24.99 32.69,24.913 32.764,24.879C32.786,24.791 32.698,24.813 32.698,24.748C32.889,24.702 32.926,24.501 33.056,24.392C32.818,24.424 32.732,24.611 32.57,24.717C32.675,24.793 32.539,24.899 32.536,24.975M32.667,24.392C32.55,24.407 32.488,24.472 32.439,24.555L32.536,24.62C32.559,24.523 32.746,24.489 32.667,24.392M34.388,24.52C34.035,24.603 33.583,24.583 33.574,25.01C33.671,25.01 33.739,24.913 33.802,24.975C33.671,25.268 33.381,25.399 33.184,25.624C33.153,26.016 32.735,26.19 32.86,26.631C33.139,26.56 33.21,26.29 33.543,26.275C33.642,25.715 34.496,25.908 34.743,25.496C34.754,25.416 34.595,25.513 34.646,25.396C34.752,25.396 34.769,25.305 34.905,25.334C35.022,24.995 35.343,24.862 35.426,24.489L35.198,24.489C35.204,24.398 35.352,24.449 35.326,24.327C35.016,24.23 34.558,24.296 34.388,24.52M33.477,24.813C33.711,24.506 34.285,24.54 34.484,24.199C33.955,24.276 33.583,24.509 33.25,24.782C33.293,24.825 33.392,24.813 33.477,24.813M44.425,22.618C44.075,22.416 43.668,22.649 43.412,23.087C43.099,23.627 43.239,23.96 43.523,24.128C43.83,24.304 44.245,24.205 44.567,23.65C44.823,23.209 44.752,22.808 44.425,22.618M44.516,22.475C45.056,22.788 45.309,23.332 44.954,23.946C44.661,24.449 44.018,24.626 43.449,24.296C42.911,23.983 42.638,23.457 43.008,22.82C43.301,22.319 43.924,22.134 44.516,22.475M42.3,21.636L42.183,21.594C42.081,21.85 41.976,22.106 41.876,22.362C42.058,22.433 42.306,22.473 42.445,22.12C42.556,21.841 42.456,21.696 42.3,21.636M41.538,22.032C41.657,21.725 41.737,21.511 41.814,21.264C41.873,21.292 41.944,21.329 42.033,21.366C42.161,21.415 42.309,21.457 42.439,21.508C42.695,21.611 42.815,21.705 42.872,21.81C42.948,21.952 42.96,22.086 42.894,22.248C42.729,22.666 42.368,22.717 41.962,22.555L41.822,22.501C41.714,22.774 41.609,23.05 41.518,23.332C41.461,23.303 41.39,23.263 41.299,23.229C41.211,23.192 41.134,23.172 41.071,23.155C41.182,22.919 41.27,22.712 41.39,22.404L41.538,22.032ZM40.855,22.709C40.804,22.78 40.758,22.859 40.73,22.936C40.559,22.979 40.352,22.973 40.116,22.913C39.453,22.749 39.169,22.234 39.305,21.696C39.504,20.908 40.113,20.741 40.713,20.891C40.912,20.942 41.148,21.065 41.259,21.179C41.199,21.264 41.154,21.358 41.12,21.452L41.08,21.443C40.983,21.23 40.855,21.116 40.653,21.065C40.349,20.988 39.937,21.164 39.783,21.77C39.635,22.359 39.925,22.677 40.252,22.76C40.434,22.805 40.667,22.774 40.824,22.677L40.855,22.709ZM38.446,21.306C38.495,20.979 38.523,20.755 38.543,20.496C38.605,20.51 38.682,20.53 38.779,20.547C38.876,20.558 38.955,20.564 39.021,20.567C38.964,20.82 38.927,21.045 38.878,21.369L38.819,21.764C38.77,22.091 38.745,22.316 38.725,22.575C38.662,22.561 38.583,22.538 38.489,22.527C38.392,22.512 38.313,22.51 38.247,22.504C38.301,22.251 38.341,22.029 38.389,21.702L38.446,21.306ZM34.376,22.137C34.359,22.222 34.351,22.311 34.359,22.393C34.22,22.504 34.029,22.586 33.79,22.632C33.119,22.757 32.644,22.413 32.542,21.864C32.394,21.065 32.877,20.658 33.486,20.544C33.688,20.507 33.955,20.519 34.103,20.576C34.083,20.678 34.08,20.783 34.092,20.883L34.049,20.891C33.873,20.738 33.711,20.686 33.506,20.726C33.196,20.783 32.894,21.119 33.011,21.733C33.122,22.328 33.517,22.498 33.85,22.436C34.035,22.399 34.234,22.274 34.334,22.12L34.376,22.137ZM31.253,21.301L31.137,21.341C31.219,21.608 31.302,21.87 31.384,22.131C31.572,22.072 31.788,21.946 31.671,21.585C31.58,21.298 31.413,21.25 31.253,21.301M30.912,22.091C30.812,21.776 30.738,21.563 30.642,21.321C30.704,21.306 30.784,21.289 30.878,21.261C31.006,21.221 31.148,21.159 31.282,21.116C31.546,21.031 31.697,21.031 31.805,21.076C31.956,21.136 32.047,21.233 32.101,21.398C32.237,21.827 31.99,22.094 31.572,22.228L31.43,22.274C31.521,22.555 31.612,22.834 31.723,23.11C31.657,23.121 31.58,23.138 31.486,23.167C31.395,23.198 31.322,23.229 31.262,23.255C31.199,23.004 31.137,22.786 31.034,22.473L30.912,22.091ZM29.939,22.493C29.808,22.191 29.715,21.983 29.595,21.753C29.658,21.733 29.734,21.71 29.823,21.673C29.914,21.634 29.982,21.594 30.039,21.565C30.124,21.81 30.209,22.02 30.337,22.322L30.497,22.692C30.625,22.993 30.719,23.201 30.838,23.431C30.775,23.451 30.699,23.474 30.61,23.514C30.522,23.551 30.451,23.59 30.394,23.622C30.309,23.377 30.224,23.167 30.096,22.862L29.939,22.493ZM28.119,22.66C27.772,22.865 27.775,23.334 28.031,23.77C28.349,24.31 28.708,24.353 28.992,24.185C29.297,24.006 29.416,23.596 29.089,23.044C28.833,22.603 28.446,22.467 28.119,22.66M28.042,22.51C28.58,22.194 29.177,22.239 29.538,22.851C29.834,23.354 29.669,24 29.103,24.333C28.568,24.648 27.977,24.626 27.601,23.991C27.308,23.491 27.453,22.857 28.042,22.51M42.997,44.017C42.843,43.699 42.729,43.485 42.593,43.244C42.656,43.218 42.738,43.189 42.832,43.144C42.923,43.099 42.997,43.053 43.057,43.016C43.162,43.275 43.261,43.494 43.418,43.812L43.605,44.196C43.708,44.404 43.816,44.617 43.89,44.765C44.103,44.66 44.314,44.543 44.518,44.41L44.57,44.543L44.641,44.66C44.538,44.705 44.399,44.759 44.14,44.887C43.679,45.112 43.605,45.161 43.546,45.195C43.443,44.939 43.341,44.717 43.187,44.401L42.997,44.017ZM41.066,43.957C40.653,44.085 40.542,44.577 40.707,45.092C40.906,45.732 41.27,45.863 41.609,45.758C41.967,45.644 42.189,45.243 41.984,44.589C41.819,44.068 41.452,43.835 41.066,43.957M41.02,43.784C41.657,43.582 42.269,43.773 42.496,44.498C42.684,45.092 42.357,45.726 41.689,45.937C41.054,46.136 40.44,45.974 40.204,45.22C40.019,44.629 40.323,44.003 41.02,43.784M38.807,44.526L38.677,44.549C38.719,44.842 38.762,45.135 38.807,45.425C39.015,45.391 39.265,45.294 39.203,44.893C39.152,44.577 38.984,44.498 38.807,44.526M38.315,45.303C38.261,44.953 38.219,44.717 38.156,44.444C38.224,44.441 38.313,44.438 38.415,44.421C38.557,44.398 38.716,44.358 38.867,44.333C39.157,44.287 39.319,44.31 39.427,44.376C39.575,44.467 39.658,44.583 39.686,44.765C39.76,45.243 39.453,45.485 38.989,45.559L38.833,45.581C38.881,45.894 38.933,46.204 39.004,46.511C38.933,46.517 38.847,46.52 38.745,46.537C38.642,46.551 38.56,46.577 38.492,46.594C38.469,46.315 38.438,46.076 38.384,45.726L38.315,45.303ZM36.632,44.714C36.634,45.001 36.64,45.286 36.649,45.57L36.72,45.576C36.996,45.567 37.144,45.408 37.132,45.112C37.121,44.74 36.976,44.703 36.632,44.714M36.683,45.707L36.654,45.707L36.657,45.835C36.669,46.187 36.683,46.432 36.711,46.708C36.643,46.702 36.558,46.696 36.452,46.699C36.35,46.702 36.265,46.716 36.196,46.725C36.205,46.446 36.205,46.204 36.194,45.852L36.179,45.422C36.168,45.07 36.154,44.828 36.125,44.552C36.196,44.555 36.282,44.563 36.384,44.56C36.498,44.555 36.632,44.535 36.848,44.529C37.163,44.518 37.283,44.543 37.394,44.617C37.525,44.705 37.607,44.842 37.613,45.027C37.621,45.331 37.454,45.533 37.144,45.621C37.357,45.971 37.607,46.321 37.849,46.671C37.752,46.668 37.658,46.662 37.564,46.665C37.471,46.668 37.374,46.679 37.277,46.688L36.683,45.707ZM34.334,45.303C34.362,44.953 34.376,44.711 34.382,44.432C34.567,44.452 34.754,44.481 34.939,44.495C35.246,44.523 35.511,44.538 35.596,44.535L35.571,44.666L35.574,44.808C35.335,44.774 34.962,44.72 34.865,44.711C34.831,44.939 34.811,45.163 34.794,45.394C35.067,45.411 35.269,45.422 35.508,45.428C35.488,45.499 35.483,45.527 35.48,45.57L35.485,45.698C35.246,45.661 35.013,45.63 34.774,45.61C34.763,45.744 34.749,45.877 34.737,46.011C34.726,46.145 34.717,46.278 34.715,46.403C34.948,46.423 35.192,46.432 35.437,46.423L35.411,46.566L35.411,46.702C35.301,46.688 35.153,46.662 34.865,46.639C34.353,46.597 34.268,46.597 34.197,46.597C34.24,46.324 34.268,46.082 34.297,45.729L34.334,45.303ZM32.829,44.683C32.852,44.566 32.874,44.455 32.874,44.41C32.755,44.387 32.491,44.353 32.3,44.336L32.343,44.202L32.357,44.063C32.636,44.131 32.772,44.165 33.156,44.242C33.537,44.319 33.679,44.341 33.944,44.384L33.901,44.518L33.887,44.657C33.725,44.6 33.469,44.529 33.347,44.506C33.332,44.549 33.31,44.657 33.284,44.777L33.13,45.547C33.059,45.894 33.017,46.133 32.983,46.409C32.914,46.386 32.835,46.361 32.732,46.341C32.63,46.321 32.545,46.312 32.476,46.304C32.547,46.039 32.601,45.8 32.673,45.456L32.829,44.683ZM30.144,43.318L30.272,43.38L30.411,43.414C30.67,44.037 30.923,44.657 31.191,45.286C31.361,44.814 31.649,44.009 31.677,43.866L31.805,43.929L31.944,43.963C31.586,44.808 31.447,45.203 31.162,45.991L31.046,45.934L30.926,45.906C30.69,45.28 30.431,44.646 30.147,44C30.062,44.222 29.973,44.467 29.894,44.688C29.723,45.163 29.672,45.331 29.641,45.445L29.507,45.38L29.365,45.345C29.41,45.266 29.732,44.518 29.948,43.912C30.045,43.645 30.096,43.46 30.144,43.318M28.696,43.556C28.858,43.241 28.964,43.025 29.072,42.769C29.132,42.806 29.203,42.854 29.297,42.902C29.388,42.948 29.467,42.979 29.533,43.005C29.388,43.244 29.271,43.457 29.112,43.77L28.915,44.151C28.753,44.464 28.648,44.683 28.54,44.939C28.48,44.902 28.409,44.853 28.315,44.805C28.224,44.757 28.145,44.728 28.079,44.703C28.224,44.464 28.341,44.25 28.5,43.937L28.696,43.556Z" style="fill:white;fill-rule:nonzero;"/>
                <path d="M6.544,58.811C6.544,57.684 6.492,56.544 6.438,55.417C6.66,55.457 6.871,55.483 7.081,55.483C7.291,55.483 7.499,55.457 7.724,55.417C7.67,56.544 7.619,57.684 7.619,58.811L7.619,61.063C7.619,62.192 7.67,63.33 7.724,64.459C7.499,64.419 7.291,64.394 7.081,64.394C6.871,64.394 6.66,64.419 6.438,64.459C6.492,63.33 6.544,62.192 6.544,61.063L6.544,58.811Z" style="fill:white;fill-rule:nonzero;"/>
                <path d="M17.707,64.628C15.716,62.282 13.33,59.767 11.091,57.384C11.077,57.867 11.051,58.652 11.051,60.043C11.051,61.17 11.103,63.934 11.168,64.457C11.026,64.418 10.867,64.392 10.71,64.392C10.554,64.392 10.394,64.418 10.227,64.457C10.329,63.843 10.5,60.487 10.5,58.758C10.5,57.108 10.5,55.837 10.46,55.248L10.67,55.248C12.806,57.566 15.702,60.723 17.3,62.336C17.3,59.989 17.3,57.435 17.195,55.416C17.34,55.456 17.496,55.481 17.641,55.481C17.786,55.481 17.917,55.456 18.06,55.416C17.983,56.189 17.852,58.783 17.852,59.807C17.852,61.144 17.877,64.039 17.892,64.628L17.707,64.628Z" style="fill:white;fill-rule:nonzero;"/>
                <path d="M22.49,58.811C22.49,57.906 22.475,57.002 22.45,56.1C21.545,56.1 20.379,56.151 19.645,56.242C19.685,56.111 19.711,55.966 19.711,55.824C19.711,55.693 19.685,55.56 19.645,55.417C20.772,55.457 21.901,55.483 23.027,55.483C24.153,55.483 25.28,55.457 26.406,55.417C26.369,55.56 26.341,55.693 26.341,55.836C26.341,55.966 26.369,56.111 26.406,56.242C25.672,56.151 24.506,56.1 23.604,56.1C23.576,57.002 23.565,57.906 23.565,58.811L23.565,61.063C23.565,62.192 23.616,63.33 23.67,64.459C23.445,64.419 23.238,64.394 23.027,64.394C22.817,64.394 22.606,64.419 22.384,64.459C22.438,63.33 22.49,62.192 22.49,61.063L22.49,58.811Z" style="fill:white;fill-rule:nonzero;"/>
                <path d="M28.098,58.797C28.098,57.671 28.047,56.531 27.992,55.416C28.78,55.456 29.551,55.481 30.339,55.481C31.124,55.481 31.898,55.456 32.671,55.416C32.646,55.547 32.631,55.68 32.631,55.811C32.631,55.942 32.646,56.073 32.671,56.204C31.57,56.124 30.928,56.033 29.224,56.033C29.213,56.596 29.173,57.054 29.173,57.697C29.173,58.379 29.184,59.099 29.184,59.426C30.731,59.426 31.596,59.361 32.37,59.295C32.344,59.426 32.33,59.571 32.33,59.702C32.33,59.833 32.344,59.964 32.37,60.094C31.465,60.003 29.816,59.978 29.184,59.978C29.173,60.291 29.173,60.618 29.173,61.878C29.173,62.873 29.184,63.513 29.198,63.84C30.365,63.84 31.912,63.829 32.737,63.672C32.711,63.789 32.697,63.96 32.697,64.079C32.697,64.196 32.711,64.341 32.737,64.457C31.963,64.418 31.178,64.392 30.379,64.392C29.58,64.392 28.792,64.418 27.992,64.457C28.047,63.317 28.098,62.179 28.098,61.05L28.098,58.797Z" style="fill:white;fill-rule:nonzero;"/>
                <path d="M35.869,59.559C36.105,59.61 36.406,59.624 36.745,59.624C37.82,59.624 39.248,59.177 39.248,57.619C39.248,56.242 38.107,55.901 37.217,55.901C36.614,55.901 36.221,55.941 35.946,55.966C35.909,56.925 35.869,57.866 35.869,58.811L35.869,59.559ZM34.794,58.811C34.794,57.684 34.743,56.544 34.688,55.417C35.186,55.457 35.684,55.483 36.182,55.483C36.679,55.483 37.177,55.417 37.675,55.417C39.157,55.417 40.402,55.929 40.402,57.488C40.402,59.177 38.71,59.86 37.715,59.991C38.357,60.79 40.545,63.606 41.307,64.459C41.042,64.419 40.781,64.394 40.519,64.394C40.272,64.394 40.01,64.419 39.76,64.459C39.236,63.66 37.493,61.248 36.367,60.108L35.869,60.108L35.869,61.063C35.869,62.192 35.92,63.33 35.974,64.459C35.749,64.419 35.542,64.394 35.331,64.394C35.121,64.394 34.91,64.419 34.688,64.459C34.743,63.33 34.794,62.192 34.794,61.063L34.794,58.811Z" style="fill:white;fill-rule:nonzero;"/>
                <path d="M44.019,59.795C44.295,59.86 44.659,59.897 44.949,59.897C46.024,59.897 47.398,59.493 47.398,57.71C47.398,56.217 46.547,55.901 45.196,55.901L44.019,55.901L44.019,59.795ZM42.944,58.811C42.944,57.684 42.892,56.544 42.838,55.417C43.259,55.457 43.692,55.483 44.11,55.483C44.528,55.483 45.367,55.417 45.734,55.417C46.522,55.417 48.604,55.443 48.604,57.63C48.604,59.937 46.337,60.383 45.08,60.383C44.687,60.383 44.36,60.369 44.019,60.344L44.019,61.063C44.019,62.192 44.07,63.33 44.124,64.459C43.899,64.419 43.692,64.394 43.481,64.394C43.271,64.394 43.06,64.419 42.838,64.459C42.892,63.33 42.944,62.192 42.944,61.063L42.944,58.811Z" style="fill:white;fill-rule:nonzero;"/>
                <path d="M54.54,55.73C52.495,55.73 50.925,57.03 50.925,59.937C50.925,62.846 52.495,64.143 54.54,64.143C56.596,64.143 58.169,62.846 58.169,59.937C58.169,57.03 56.596,55.73 54.54,55.73M54.54,55.247C57.435,55.247 59.454,56.962 59.454,59.937C59.454,62.912 57.435,64.627 54.54,64.627C51.659,64.627 49.639,62.912 49.639,59.937C49.639,56.962 51.659,55.247 54.54,55.247" style="fill:white;fill-rule:nonzero;"/>
                <path d="M61.432,58.811C61.432,57.684 61.381,56.544 61.327,55.417C61.548,55.457 61.759,55.483 61.969,55.483C62.18,55.483 62.388,55.457 62.612,55.417C62.558,56.544 62.507,57.684 62.507,58.811C62.507,61.012 62.533,62.559 62.547,63.842C63.778,63.842 64.851,63.842 66.162,63.671C66.122,63.802 66.096,63.933 66.096,64.064C66.096,64.195 66.122,64.328 66.162,64.459C65.362,64.419 64.552,64.394 63.75,64.394C62.939,64.394 62.14,64.419 61.327,64.459C61.381,63.33 61.432,62.192 61.432,61.063L61.432,58.811Z" style="fill:white;fill-rule:nonzero;"/>
            </g>
        </g>
    </g>
</svg>
