<?xml version="1.0" encoding="UTF-8" standalone="no"?>
<!DOCTYPE svg PUBLIC "-//W3C//DTD SVG 1.1//EN" "http://www.w3.org/Graphics/SVG/1.1/DTD/svg11.dtd">
<svg width="100%" height="100%" viewBox="0 0 73 109" version="1.1" xmlns="http://www.w3.org/2000/svg" xmlns:xlink="http://www.w3.org/1999/xlink" xml:space="preserve" xmlns:serif="http://www.serif.com/" style="fill-rule:evenodd;clip-rule:evenodd;stroke-linejoin:round;stroke-miterlimit:2;">
    <g transform="matrix(1,0,0,1,-109.773,0)">
        <g>
            <rect x="110.157" y="36.409" width="71.278" height="71.278" style="fill:white;"/>
            <path d="M110.157,36.409L109.773,36.409L109.773,108.073L181.821,108.073L181.821,36.025L109.773,36.025L109.773,36.409L110.157,36.409L110.157,36.793L181.434,36.793L181.434,36.409L181.05,36.409L181.05,107.686L181.434,107.686L181.434,107.302L110.157,107.302L110.157,107.686L110.54,107.686L110.54,36.409L110.157,36.409L110.157,36.793L110.157,36.409Z" style="fill:rgb(255,203,5);fill-rule:nonzero;"/>
            <g>
                <path d="M124.563,85.286C124.563,86.386 124.602,87.093 124.654,88.311C124.353,88.286 124.052,88.233 123.751,88.233C123.49,88.233 123.122,88.286 122.874,88.311C122.913,87.29 122.952,85.574 122.952,84.762L122.179,83.426C121.511,82.274 120.398,80.467 119.718,79.327C120.202,79.38 120.503,79.406 120.791,79.406C121.105,79.406 121.486,79.392 121.865,79.327C122.547,80.768 123.044,81.802 124.157,83.754C125.271,81.841 125.48,81.396 126.423,79.327C126.633,79.367 126.894,79.406 127.182,79.406C127.444,79.406 127.588,79.38 127.732,79.327C127.536,79.681 126.58,81.2 126.384,81.514C125.795,82.457 125.283,83.439 124.734,84.382C124.642,84.54 124.563,84.684 124.563,84.802L124.563,85.286Z" style="fill:rgb(88,89,91);fill-rule:nonzero;"/>
                <path d="M130.467,83.217C131.136,83.217 132.603,83.203 133.296,83.125C133.257,83.269 133.231,83.4 133.231,83.597C133.231,83.78 133.257,83.95 133.296,84.042C132.956,84.016 132.616,83.99 132.288,83.977C131.686,83.963 131.07,83.95 130.467,83.95L130.467,87.499C130.808,87.499 132.485,87.46 133.597,87.408C133.546,87.526 133.532,87.657 133.532,87.84C133.532,88.036 133.546,88.168 133.597,88.311C132.812,88.259 132.026,88.233 131.188,88.233C130.402,88.233 129.577,88.259 128.739,88.311C128.765,87.762 128.791,87.225 128.804,86.674C128.831,85.915 128.856,84.317 128.856,83.715C128.856,83.164 128.831,80.637 128.739,79.327C129.381,79.367 130.402,79.406 131.109,79.406C131.712,79.406 132.576,79.353 133.519,79.327C133.479,79.485 133.454,79.589 133.454,79.746C133.454,79.943 133.479,80.126 133.519,80.231L132.288,80.165C131.803,80.139 131.673,80.139 130.467,80.139L130.467,83.217Z" style="fill:rgb(88,89,91);fill-rule:nonzero;"/>
                <path d="M135.416,82.902C135.416,82.326 135.416,82.195 135.377,81.03C135.364,80.755 135.338,79.576 135.325,79.327C135.652,79.392 135.901,79.406 136.229,79.406C136.556,79.406 136.818,79.38 137.145,79.327C137.054,81.305 137.014,82.955 137.014,84.972C137.014,85.888 137.041,86.74 137.054,87.46L137.289,87.46C137.669,87.46 139.555,87.46 140.328,87.343C140.289,87.486 140.262,87.565 140.262,87.866C140.262,88.063 140.275,88.141 140.328,88.311C139.66,88.286 138.534,88.233 137.826,88.233C136.988,88.233 136.281,88.259 135.325,88.311C135.325,88.102 135.416,85.063 135.416,84.736L135.416,82.902Z" style="fill:rgb(88,89,91);fill-rule:nonzero;"/>
                <path d="M141.963,82.902C141.963,82.326 141.963,82.195 141.924,81.03C141.911,80.755 141.884,79.576 141.871,79.327C142.199,79.392 142.448,79.406 142.776,79.406C143.103,79.406 143.365,79.38 143.692,79.327C143.601,81.305 143.561,82.955 143.561,84.972C143.561,85.888 143.587,86.74 143.601,87.46L143.835,87.46C144.216,87.46 146.102,87.46 146.875,87.343C146.835,87.486 146.809,87.565 146.809,87.866C146.809,88.063 146.822,88.141 146.875,88.311C146.207,88.286 145.081,88.233 144.373,88.233C143.534,88.233 142.827,88.259 141.871,88.311C141.871,88.102 141.963,85.063 141.963,84.736L141.963,82.902Z" style="fill:rgb(88,89,91);fill-rule:nonzero;"/>
            </g>
            <g>
                <path d="M158.413,83.701C158.413,86.622 156.436,88.495 153.529,88.495C150.805,88.495 148.643,86.884 148.643,84.016C148.643,80.689 150.923,79.222 153.567,79.222C156.017,79.222 158.413,80.558 158.413,83.701ZM153.529,87.827C155.755,87.827 156.619,85.731 156.619,83.859C156.619,81.724 155.82,79.89 153.529,79.89C151.276,79.89 150.437,82.064 150.437,83.859C150.437,85.81 151.276,87.827 153.529,87.827Z" style="fill:rgb(88,89,91);fill-rule:nonzero;"/>
                <path d="M163.256,85.981L163.584,85.129C163.715,84.775 165.103,80.925 165.496,79.327C165.666,79.353 165.837,79.406 166.072,79.406C166.334,79.406 166.465,79.367 166.649,79.327C166.662,79.353 167.46,81.973 167.67,82.601C168.05,83.754 168.456,84.893 168.875,86.02C169.255,85.024 169.333,84.815 169.949,82.981C170.329,81.855 170.565,81.03 171.036,79.327C171.18,79.367 171.39,79.406 171.638,79.406C171.835,79.406 172.032,79.38 172.228,79.327C171.442,81.292 170.997,82.457 170.276,84.5C169.543,86.596 169.491,86.753 168.993,88.311C168.796,88.272 168.653,88.233 168.469,88.233C168.273,88.233 168.024,88.298 167.906,88.311C167.422,86.727 167.369,86.556 167.159,85.967C167.003,85.522 166.334,83.518 166.19,83.112C166.046,82.693 165.797,82.025 165.653,81.606L165.26,82.693C164.593,84.553 164.527,84.762 164.016,86.255C163.833,86.792 163.584,87.63 163.374,88.311C163.151,88.259 163.021,88.233 162.877,88.233C162.732,88.233 162.523,88.272 162.34,88.311L162.012,87.316C161.541,85.876 161.149,84.697 160.545,82.994C160.192,81.999 159.734,80.742 159.196,79.327C159.459,79.353 159.903,79.406 160.218,79.406C160.52,79.406 160.808,79.38 161.135,79.327C161.541,80.873 162.393,83.426 163.008,85.247L163.256,85.981Z" style="fill:rgb(88,89,91);fill-rule:nonzero;"/>
            </g>
            <g>
                <path d="M122.533,96.099C122.533,94.868 122.52,93.637 122.507,92.419C122.612,92.432 122.716,92.445 122.821,92.445C122.926,92.445 123.018,92.432 123.122,92.419C124.366,93.794 125.532,95.012 127.117,96.557L128.662,98.077C128.911,98.312 129.029,98.404 129.317,98.64L129.317,95.732C129.317,94.619 129.252,93.493 129.161,92.419C129.317,92.458 129.487,92.497 129.723,92.497C129.959,92.497 130.116,92.458 130.273,92.419C130.155,94.003 130.129,94.934 130.129,96.846C130.129,97.605 130.142,99.491 130.142,100.172C130.142,100.46 130.155,101.141 130.155,101.469C130.064,101.456 129.972,101.442 129.893,101.442C129.801,101.442 129.71,101.456 129.618,101.469C127.955,99.661 124.734,96.452 123.345,95.182C123.345,96.964 123.358,97.919 123.385,99.308C123.397,100.068 123.41,100.198 123.503,101.403C123.358,101.39 123.096,101.325 122.913,101.325C122.716,101.325 122.547,101.364 122.389,101.403L122.494,99.583C122.52,99.229 122.533,98.247 122.533,97.88L122.533,96.099Z" style="fill:rgb(88,89,91);fill-rule:nonzero;"/>
                <path d="M141.757,96.793C141.757,99.714 139.779,101.586 136.872,101.586C134.148,101.586 131.986,99.976 131.986,97.107C131.986,93.781 134.266,92.314 136.91,92.314C139.36,92.314 141.757,93.65 141.757,96.793ZM136.872,100.918C139.098,100.918 139.962,98.823 139.962,96.95C139.962,94.816 139.164,92.982 136.872,92.982C134.619,92.982 133.781,95.156 133.781,96.95C133.781,98.902 134.619,100.918 136.872,100.918Z" style="fill:rgb(88,89,91);fill-rule:nonzero;"/>
            </g>
            <g>
                <path d="M146.979,99.609C146.979,100.604 147.032,101.036 147.071,101.403C146.691,101.364 146.272,101.325 146.115,101.325C145.892,101.325 145.696,101.351 145.224,101.403C145.277,100.408 145.355,99.399 145.355,98.404L145.342,94.75C145.342,94.265 145.329,93.807 145.316,93.296L144.66,93.296C144.544,93.296 143.286,93.322 142.618,93.388C142.658,93.231 142.683,93.06 142.683,92.903C142.683,92.746 142.658,92.576 142.618,92.419C143.652,92.484 145.106,92.497 146.115,92.497C147.201,92.497 148.354,92.484 149.611,92.419C149.573,92.641 149.546,92.812 149.546,92.917C149.546,93.06 149.573,93.178 149.611,93.388C148.839,93.309 147.91,93.296 147.005,93.296C146.992,93.768 146.979,94.265 146.979,94.763L146.979,99.609Z" style="fill:rgb(88,89,91);fill-rule:nonzero;"/>
                <path d="M150.933,92.419C151.182,92.445 151.666,92.497 151.862,92.497C152.151,92.497 152.478,92.458 152.792,92.419C152.649,93.388 152.649,95.654 152.649,96.976C152.649,98.928 152.674,100.342 152.78,101.403C152.478,101.39 152.163,101.325 151.862,101.325C151.574,101.325 151.207,101.39 150.919,101.403C151.064,99.845 151.064,97.684 151.064,95.444C151.064,94.619 151.064,93.689 150.933,92.419Z" style="fill:rgb(88,89,91);fill-rule:nonzero;"/>
                <path d="M162.365,94.252L162.235,94.252C162.077,93.938 161.618,93.021 159.732,93.021C157.545,93.021 156.38,94.462 156.38,96.937C156.38,97.395 156.38,98.613 157.179,99.674C157.65,100.29 158.358,100.866 159.549,100.866C161.161,100.866 161.986,100.068 162.575,99.373L162.719,99.465L162.575,100.761C161.58,101.312 160.454,101.586 159.261,101.586C156.707,101.586 154.586,100.002 154.586,97.055C154.586,94.423 156.197,92.314 159.694,92.314C160.768,92.314 161.711,92.497 162.759,92.969L162.365,94.252Z" style="fill:rgb(88,89,91);fill-rule:nonzero;"/>
                <path d="M165.952,96.308C166.62,96.308 168.087,96.296 168.78,96.217C168.741,96.361 168.715,96.492 168.715,96.688C168.715,96.871 168.741,97.042 168.78,97.134C168.44,97.107 168.1,97.081 167.772,97.068C167.17,97.055 166.554,97.042 165.952,97.042L165.952,100.591C166.292,100.591 167.969,100.552 169.082,100.499C169.03,100.617 169.016,100.748 169.016,100.932C169.016,101.128 169.03,101.259 169.082,101.403C168.296,101.351 167.51,101.325 166.672,101.325C165.886,101.325 165.062,101.351 164.223,101.403C164.249,100.853 164.275,100.316 164.288,99.766C164.315,99.007 164.34,97.409 164.34,96.806C164.34,96.256 164.315,93.728 164.223,92.419C164.865,92.458 165.886,92.497 166.593,92.497C167.196,92.497 168.06,92.445 169.003,92.419C168.964,92.576 168.938,92.681 168.938,92.838C168.938,93.035 168.964,93.218 169.003,93.322L167.772,93.257C167.287,93.231 167.157,93.231 165.952,93.231L165.952,96.308Z" style="fill:rgb(88,89,91);fill-rule:nonzero;"/>
            </g>
            <path d="M181.821,72.048L181.821,0L109.773,0L109.773,72.048L141.875,72.048L145.797,75.487L149.719,72.048L181.821,72.048Z" style="fill:rgb(255,203,5);fill-rule:nonzero;"/>
            <g>
                <path d="M161.91,48.573L149.015,48.573L149.015,48.294L161.91,48.294L161.91,48.573ZM155.468,50.566L155.465,50.566C153.13,50.566 151.176,49.673 149.982,48.957L160.949,48.957C159.757,49.673 157.803,50.566 155.468,50.566M145.892,47.108C142.55,47.108 139.359,46.235 136.648,44.585L138.241,41.88C140.352,43.3 143.011,44.147 145.892,44.147C148.776,44.147 151.435,43.3 153.546,41.88L155.138,44.585C152.428,46.235 149.234,47.108 145.892,47.108M146.634,50.908L146.085,51.738L146.085,47.489C146.307,47.486 146.529,47.48 146.751,47.472L146.634,50.908ZM145.701,51.738L145.153,50.908L145.036,47.472C145.258,47.48 145.48,47.486 145.701,47.489L145.701,51.738ZM142.772,48.573L129.877,48.573L129.877,48.294L142.772,48.294L142.772,48.573ZM136.321,50.566C133.984,50.566 132.03,49.673 130.838,48.957L141.805,48.957C140.61,49.673 138.656,50.566 136.321,50.566M133.142,43.339L133.344,43.479C133.742,43.74 134.259,43.945 134.882,44.087L134.723,44.193C134.589,44.281 134.476,44.355 134.399,44.395C134.026,44.579 133.648,44.659 133.642,44.659L133.23,44.742L133.563,44.998C134.51,45.734 135.386,46.027 136.131,46.107L136.131,47.91L131.452,47.91L133.142,43.339ZM131.404,41.058C131.944,41.033 133.107,41.058 134.481,41.545C135.329,41.846 135.997,42.219 136.492,42.552C136.319,42.643 136.199,42.822 136.199,43.032L136.105,42.981C135.77,42.799 135.42,42.64 135.061,42.506C134.7,42.378 134.325,42.273 133.941,42.236L134.936,42.782L135.923,43.319L136.193,43.462C135.895,43.538 135.616,43.661 135.369,43.797C134.606,43.664 133.995,43.447 133.554,43.157C132.547,42.492 131.822,41.636 131.404,41.058M131.23,37.33C131.458,37.446 131.793,37.597 132.246,37.725C132.453,37.785 132.644,37.847 132.826,37.921C132.917,38.086 133.093,38.197 133.295,38.197L133.341,38.194L133.523,38.325C133.563,38.561 133.756,38.746 133.998,38.772C134.114,38.9 134.234,39.042 134.356,39.207C134.41,39.292 134.464,39.38 134.518,39.471C134.706,40.171 135.121,40.811 135.613,41.366C135.525,41.289 135.437,41.212 135.349,41.135L134.271,40.194C133.91,39.878 133.551,39.562 133.196,39.232C133.426,39.662 133.736,40.043 134.057,40.407C134.348,40.731 134.658,41.036 134.982,41.323C134.862,41.277 134.737,41.229 134.609,41.184C134.089,40.999 133.602,40.876 133.162,40.8C132.379,40.034 131.458,38.843 131.23,37.33M133.474,37.657C133.474,37.779 133.375,37.876 133.255,37.876C133.136,37.876 133.036,37.779 133.036,37.657C133.036,37.537 133.136,37.438 133.255,37.438C133.375,37.438 133.474,37.537 133.474,37.657M134.225,38.197C134.225,38.319 134.129,38.416 134.009,38.416C133.89,38.416 133.79,38.319 133.79,38.197C133.79,38.078 133.89,37.981 134.009,37.981C134.129,37.981 134.225,38.078 134.225,38.197M134.404,38.644L134.404,38.652L134.399,38.647L134.404,38.644ZM131.094,32.526C131.299,32.788 131.6,33.149 131.961,33.547L131.956,33.618C131.956,33.917 132.197,34.158 132.499,34.158L132.547,34.156C132.869,34.474 133.221,34.79 133.588,35.077C133.759,36.036 134.077,36.951 134.527,37.81L134.495,37.924C134.399,37.785 134.237,37.694 134.055,37.694L133.878,37.722L133.836,37.668L133.836,37.657C133.836,37.398 133.654,37.182 133.409,37.128C133.173,36.818 132.945,36.502 132.732,36.175C132.479,35.785 132.24,35.387 132.052,34.949C132.067,35.188 132.123,35.424 132.197,35.654C132.271,35.885 132.365,36.11 132.47,36.326C132.624,36.633 132.8,36.926 132.997,37.21C132.897,37.276 132.817,37.375 132.78,37.495L132.695,37.463C131.532,35.879 131.003,34.258 131.094,32.526M132.615,33.521C132.615,33.641 132.519,33.737 132.399,33.737C132.277,33.737 132.18,33.641 132.18,33.521C132.18,33.399 132.277,33.302 132.399,33.302C132.519,33.302 132.615,33.399 132.615,33.521M132.9,27.384C133.011,27.52 133.179,27.756 133.366,28.109C133.213,28.442 133.102,28.809 133.09,29.201C133.059,30.077 133.227,30.785 133.654,31.488C133.577,31.843 133.52,32.204 133.486,32.569L133.406,32.378C133.264,32.022 133.15,31.653 133.045,31.277C132.94,30.899 132.849,30.515 132.738,30.128C132.689,30.529 132.698,30.933 132.749,31.337C132.8,31.738 132.897,32.136 133.048,32.52C133.153,32.782 133.284,33.035 133.446,33.268L133.443,33.447C133.443,33.806 133.466,34.161 133.506,34.514C133.298,34.338 133.099,34.156 132.908,33.968C132.988,33.874 133.036,33.752 133.036,33.618C133.036,33.319 132.795,33.078 132.499,33.078L132.425,33.083C131.995,31.943 131.279,29.295 132.9,27.384M133.472,29.212C133.506,28.26 134.205,27.446 134.578,27.008L134.72,26.84C134.783,26.764 134.845,26.687 134.911,26.61C135.042,26.454 135.167,26.303 135.269,26.155C135.369,26.411 135.488,26.846 135.545,27.506C135.286,27.836 135.05,28.18 134.834,28.536C134.842,28.447 134.848,28.356 134.854,28.265C134.86,28.092 134.862,27.916 134.851,27.722C134.714,27.861 134.626,28.032 134.558,28.206C134.493,28.379 134.45,28.558 134.43,28.737C134.407,28.919 134.404,29.099 134.427,29.281C134.166,29.81 133.952,30.364 133.79,30.933C133.548,30.407 133.449,29.861 133.472,29.212M136.466,42.879C136.466,42.759 136.566,42.662 136.685,42.662C136.805,42.662 136.904,42.759 136.904,42.879C136.904,43.001 136.805,43.098 136.685,43.098C136.566,43.098 136.466,43.001 136.466,42.879M137.593,45.993C137.593,45.871 137.692,45.774 137.812,45.774C137.931,45.774 138.028,45.871 138.028,45.993C138.028,46.112 137.931,46.209 137.812,46.209C137.692,46.209 137.593,46.112 137.593,45.993M137.78,46.531C138.079,46.531 138.321,46.289 138.321,45.993L138.309,45.893C139.112,46.255 139.945,46.559 140.801,46.798L141.213,47.91L136.515,47.91L136.515,46.127L136.56,46.13C136.808,46.13 137.038,46.107 137.246,46.073C137.286,46.331 137.51,46.531 137.78,46.531M136.228,44.779L135.952,44.793C135.707,44.81 135.462,44.824 135.204,44.867C135.437,44.983 135.684,45.052 135.935,45.094C136.188,45.137 136.444,45.151 136.7,45.134L136.782,45.111C137.027,45.254 137.277,45.387 137.527,45.515L137.351,45.663C136.572,45.828 135.445,45.831 134.114,44.926C134.251,44.878 134.41,44.818 134.572,44.736C134.669,44.688 134.786,44.611 134.933,44.514C135.366,44.227 135.994,43.814 136.683,43.772L136.128,44.716L136.228,44.779ZM137.465,42.242C137.465,42.361 137.368,42.461 137.246,42.461C137.126,42.461 137.03,42.361 137.03,42.242C137.03,42.122 137.126,42.023 137.246,42.023C137.368,42.023 137.465,42.122 137.465,42.242M137.246,41.676C137.047,41.676 136.87,41.786 136.776,41.949C136.028,41.314 135.184,40.407 134.896,39.363L134.896,39.358C134.803,39.025 134.768,38.678 134.814,38.322C135.582,39.608 136.646,40.743 137.923,41.661L137.732,41.983C137.647,41.801 137.462,41.676 137.246,41.676M145.892,23.132C152.547,23.132 157.96,27.759 157.96,33.447C157.96,33.803 157.937,34.158 157.897,34.505C157.837,34.653 157.542,34.724 157.638,34.921C157.692,34.81 157.837,34.69 157.886,34.585C157.428,38.146 154.84,41.166 151.239,42.694L151.185,42.717C151.103,42.725 150.977,42.714 150.983,42.626L150.832,42.54C150.778,42.409 150.545,42.435 150.528,42.267C150.229,42.168 150.252,42.156 149.982,42.108C149.76,42.068 149.584,41.997 149.356,41.974C149.12,41.951 148.577,42.27 148.295,42.318C148.193,42.335 148.207,42.284 148.133,42.207C147.809,41.869 147.178,42.074 146.498,42.358C146.316,42.435 146.06,42.591 145.841,42.589C145.36,42.58 145.042,42.267 144.402,42.239C144.205,42.227 144.365,42.714 144.296,42.913C144.197,42.876 143.91,42.748 143.91,42.748C143.91,42.748 143.62,42.722 143.506,42.699C143.378,42.671 143.287,42.634 143.267,42.66C143.085,42.876 142.923,42.29 142.584,42.27C142.431,42.051 142.141,41.823 141.907,41.57C141.777,41.428 141.486,40.731 141.478,40.93C141.452,41.459 141.959,41.701 141.93,42.108L141.828,42.088C141.825,42.139 141.683,42.182 141.708,42.301C141.552,42.33 141.205,42.335 141.154,42.424C141.057,42.589 140.767,42.662 140.554,42.694C136.572,41.007 133.827,37.497 133.827,33.447C133.827,27.759 139.24,23.132 145.892,23.132M135.926,23.058C138.372,21.331 141.319,20.29 144.473,20.04C144.521,20.632 144.558,21.442 144.558,22.557L144.558,22.81C141.905,23.055 139.498,24.019 137.61,25.47L135.926,23.058ZM144.615,18.552C144.948,18.558 145.309,18.564 145.701,18.564L145.701,22.75C145.445,22.753 145.192,22.762 144.939,22.779L144.939,22.557C144.939,20.555 144.828,19.181 144.615,18.552M147.189,18.552C146.976,19.181 146.862,20.555 146.862,22.557L146.862,22.779C146.606,22.765 146.347,22.753 146.085,22.75L146.085,18.564C146.484,18.564 146.853,18.558 147.189,18.552M142.431,18.08L142.431,17.813C142.82,17.787 143.844,17.728 145.318,17.716L146.486,17.716C147.96,17.728 148.981,17.787 149.373,17.813L149.373,18.08C148.941,18.109 147.727,18.18 145.901,18.18C144.077,18.18 142.863,18.109 142.431,18.08M146.865,17.332L146.486,17.332C146.111,17.33 145.693,17.33 145.318,17.332L144.939,17.332C145.013,17.022 145.079,16.445 145.079,15.353L145.079,12.039C145.363,12.059 145.687,12.076 145.901,12.076C146.114,12.076 146.441,12.059 146.725,12.039L146.725,15.353C146.725,16.445 146.791,17.022 146.865,17.332M144.692,11.624L144.692,11.385C144.956,11.362 145.468,11.325 145.901,11.325C146.336,11.325 146.848,11.362 147.109,11.385L147.109,11.624C146.814,11.647 146.216,11.692 145.901,11.692C145.588,11.692 144.988,11.647 144.692,11.624M145.901,10.43C146.088,10.43 146.248,10.546 146.248,10.686C146.248,10.822 146.088,10.942 145.901,10.942C145.716,10.942 145.556,10.822 145.556,10.686C145.556,10.546 145.716,10.43 145.901,10.43M155.861,22.995L154.154,25.45C152.271,24.013 149.882,23.058 147.246,22.813L147.246,22.557C147.246,21.439 147.283,20.626 147.331,20.034C150.471,20.27 153.412,21.291 155.861,22.995M156.518,26.155C156.62,26.303 156.745,26.454 156.876,26.61C156.942,26.687 157.004,26.764 157.067,26.84L157.209,27.008C157.582,27.446 158.281,28.26 158.315,29.212C158.338,29.861 158.239,30.404 157.994,30.93C157.835,30.361 157.621,29.81 157.36,29.281C157.382,29.099 157.38,28.919 157.36,28.737C157.337,28.558 157.294,28.379 157.229,28.206C157.161,28.032 157.072,27.861 156.936,27.722C156.925,27.916 156.927,28.092 156.933,28.265C156.939,28.356 156.944,28.447 156.953,28.536C156.737,28.18 156.501,27.836 156.242,27.506C156.299,26.846 156.421,26.411 156.518,26.155M158.887,27.384C160.508,29.295 159.791,31.943 159.362,33.083L159.291,33.078C158.992,33.078 158.75,33.319 158.75,33.618C158.75,33.752 158.799,33.874 158.878,33.968C158.688,34.156 158.489,34.338 158.281,34.514C158.321,34.161 158.344,33.806 158.344,33.447L158.341,33.268C158.503,33.035 158.634,32.782 158.739,32.52C158.89,32.136 158.987,31.738 159.038,31.337C159.089,30.933 159.097,30.529 159.049,30.128C158.938,30.515 158.847,30.899 158.742,31.277C158.637,31.653 158.523,32.022 158.381,32.378L158.301,32.569C158.267,32.204 158.21,31.843 158.133,31.488C158.56,30.785 158.728,30.077 158.699,29.201C158.685,28.809 158.574,28.442 158.421,28.109C158.608,27.756 158.776,27.52 158.887,27.384M159.171,33.521C159.171,33.399 159.268,33.302 159.39,33.302C159.51,33.302 159.607,33.399 159.607,33.521C159.607,33.641 159.51,33.737 159.39,33.737C159.268,33.737 159.171,33.641 159.171,33.521M159.826,33.547C160.187,33.149 160.488,32.788 160.693,32.526C160.784,34.258 160.255,35.879 159.092,37.463L159.006,37.495C158.969,37.375 158.893,37.276 158.79,37.21C158.987,36.926 159.163,36.633 159.316,36.326C159.422,36.11 159.516,35.885 159.59,35.654C159.663,35.424 159.72,35.188 159.735,34.949C159.547,35.387 159.308,35.785 159.055,36.175C158.842,36.502 158.614,36.818 158.378,37.128C158.133,37.182 157.951,37.398 157.951,37.657L157.951,37.668L157.909,37.722L157.735,37.694C157.55,37.694 157.388,37.785 157.291,37.924L157.26,37.81C157.71,36.951 158.028,36.036 158.199,35.077C158.566,34.79 158.918,34.474 159.24,34.156L159.291,34.158C159.59,34.158 159.831,33.917 159.831,33.618L159.826,33.547ZM158.312,37.657C158.312,37.537 158.412,37.438 158.531,37.438C158.651,37.438 158.75,37.537 158.75,37.657C158.75,37.779 158.651,37.876 158.531,37.876C158.412,37.876 158.312,37.779 158.312,37.657M157.562,38.197C157.562,38.078 157.658,37.981 157.778,37.981C157.9,37.981 157.997,38.078 157.997,38.197C157.997,38.319 157.9,38.416 157.778,38.416C157.658,38.416 157.562,38.319 157.562,38.197M157.382,38.644L157.388,38.647L157.382,38.652L157.382,38.644ZM160.557,37.33C160.329,38.843 159.407,40.034 158.625,40.8C158.184,40.876 157.698,40.999 157.178,41.184C157.05,41.229 156.925,41.277 156.805,41.323C157.129,41.036 157.439,40.731 157.729,40.407C158.051,40.043 158.361,39.662 158.591,39.232C158.236,39.562 157.877,39.878 157.516,40.194L156.441,41.135C156.35,41.212 156.262,41.289 156.174,41.366C156.666,40.811 157.081,40.171 157.272,39.471C157.323,39.38 157.377,39.292 157.431,39.207C157.553,39.042 157.673,38.9 157.789,38.772C158.031,38.746 158.224,38.561 158.264,38.325L158.446,38.194L158.492,38.197C158.694,38.197 158.87,38.086 158.961,37.921C159.143,37.847 159.334,37.785 159.541,37.725C159.993,37.597 160.329,37.446 160.557,37.33M160.383,41.058C159.965,41.636 159.243,42.492 158.233,43.157C157.792,43.447 157.181,43.664 156.418,43.797C156.171,43.661 155.892,43.538 155.593,43.462L155.864,43.319L156.851,42.782L157.846,42.236C157.462,42.273 157.087,42.378 156.725,42.506C156.367,42.64 156.017,42.799 155.682,42.981L155.588,43.032C155.588,42.822 155.468,42.643 155.295,42.552C155.79,42.219 156.458,41.846 157.306,41.545C158.679,41.058 159.843,41.033 160.383,41.058M155.101,42.662C155.221,42.662 155.32,42.759 155.32,42.879C155.32,43.001 155.221,43.098 155.101,43.098C154.982,43.098 154.885,43.001 154.885,42.879C154.885,42.759 154.982,42.662 155.101,42.662M154.757,42.242C154.757,42.361 154.661,42.461 154.541,42.461C154.422,42.461 154.322,42.361 154.322,42.242C154.322,42.122 154.422,42.023 154.541,42.023C154.661,42.023 154.757,42.122 154.757,42.242M154.541,41.676C154.325,41.676 154.14,41.801 154.055,41.983L153.864,41.661C155.144,40.743 156.205,39.608 156.973,38.322C157.018,38.678 156.984,39.025 156.893,39.358L156.89,39.363C156.603,40.407 155.758,41.314 155.01,41.949C154.917,41.786 154.74,41.676 154.541,41.676M154.436,45.663L154.26,45.515C154.51,45.384 154.76,45.254 155.005,45.111L155.087,45.134C155.343,45.151 155.599,45.137 155.852,45.094C156.103,45.052 156.35,44.983 156.583,44.867C156.324,44.824 156.08,44.81 155.835,44.793L155.559,44.779L155.659,44.716L155.104,43.772C155.793,43.814 156.421,44.227 156.853,44.514C157.001,44.611 157.118,44.688 157.217,44.736C157.377,44.818 157.536,44.878 157.673,44.926C156.342,45.831 155.215,45.828 154.436,45.663M153.759,45.993C153.759,45.871 153.856,45.774 153.975,45.774C154.095,45.774 154.194,45.871 154.194,45.993C154.194,46.112 154.095,46.209 153.975,46.209C153.856,46.209 153.759,46.112 153.759,45.993M154.006,46.531C154.277,46.531 154.501,46.331 154.541,46.073C154.749,46.107 154.979,46.13 155.227,46.13L155.272,46.127L155.272,47.91L150.573,47.91L150.986,46.798C151.842,46.559 152.675,46.255 153.477,45.893L153.466,45.993C153.466,46.289 153.708,46.531 154.006,46.531M160.335,47.91L155.656,47.91L155.656,46.107C156.401,46.027 157.277,45.734 158.224,44.998L158.557,44.742L158.145,44.659C158.139,44.659 157.761,44.579 157.388,44.395C157.311,44.355 157.198,44.281 157.064,44.193L156.905,44.087C157.527,43.945 158.045,43.74 158.443,43.479L158.645,43.339L160.335,47.91ZM142.001,18.78L141.734,18.78C141.717,18.581 141.694,18.24 141.694,17.947C141.694,17.657 141.717,17.312 141.734,17.111L142.001,17.111C142.018,17.338 142.047,17.733 142.047,17.947C142.047,18.16 142.018,18.555 142.001,18.78M141.083,18.277C140.96,18.277 140.858,18.126 140.858,17.947C140.858,17.768 140.96,17.62 141.083,17.62C141.208,17.62 141.31,17.768 141.31,17.947C141.31,18.126 141.208,18.277 141.083,18.277M149.803,17.111L150.07,17.111C150.087,17.312 150.11,17.657 150.11,17.947C150.11,18.237 150.087,18.581 150.07,18.78L149.803,18.78C149.786,18.555 149.757,18.16 149.757,17.947C149.757,17.733 149.786,17.338 149.803,17.111M150.719,17.62C150.841,17.62 150.943,17.768 150.943,17.947C150.943,18.126 150.841,18.277 150.719,18.277C150.596,18.277 150.494,18.126 150.494,17.947C150.494,17.768 150.596,17.62 150.719,17.62M160.744,47.91L158.967,43.098C159.917,42.35 160.565,41.488 160.889,41.001L161.057,40.748L160.758,40.703C160.719,40.697 160.138,40.618 159.243,40.711C160.292,39.562 160.892,38.28 160.98,36.977L161.009,36.553L160.673,36.812C160.67,36.815 160.346,37.057 159.692,37.276C160.812,35.592 161.253,33.857 161.034,31.991L160.977,31.502L160.687,31.903C160.682,31.912 160.338,32.384 159.803,32.992C160.269,31.647 160.867,28.925 159.029,26.966L158.901,26.826L158.759,26.954C158.748,26.966 158.506,27.19 158.207,27.705C157.963,27.301 157.684,26.971 157.499,26.758L157.368,26.601C157.303,26.522 157.237,26.442 157.172,26.363C156.961,26.112 156.762,25.873 156.694,25.674L156.58,25.333L156.361,25.62C156.344,25.64 156.043,26.047 155.901,27.091C155.468,26.587 154.985,26.118 154.456,25.689L156.393,22.901L156.239,22.79C153.705,20.981 150.642,19.901 147.368,19.653C147.451,18.914 147.553,18.638 147.601,18.541C148.494,18.518 149.106,18.484 149.393,18.464C149.41,18.729 149.433,18.973 149.433,18.991L149.45,19.167L150.42,19.167L150.437,18.993C150.44,18.979 150.454,18.817 150.468,18.595C150.545,18.638 150.63,18.661 150.719,18.661C151.054,18.661 151.327,18.339 151.327,17.947C151.327,17.554 151.054,17.233 150.719,17.233C150.63,17.233 150.545,17.258 150.468,17.298C150.454,17.076 150.44,16.914 150.437,16.9L150.42,16.727L149.447,16.727L149.433,16.903C149.433,16.92 149.41,17.165 149.393,17.429C149.069,17.409 148.327,17.366 147.269,17.344C147.22,17.21 147.109,16.752 147.109,15.353L147.109,12.011C147.229,12.002 147.308,11.994 147.32,11.994L147.493,11.98L147.493,11.035L147.32,11.018C147.3,11.015 146.964,10.984 146.56,10.961C146.606,10.876 146.632,10.782 146.632,10.686C146.632,10.333 146.304,10.046 145.901,10.046C145.5,10.046 145.172,10.333 145.172,10.686C145.172,10.782 145.198,10.876 145.244,10.961C144.837,10.984 144.504,11.015 144.481,11.018L144.308,11.035L144.308,11.98L144.484,11.994C144.496,11.994 144.575,12.002 144.692,12.011L144.692,15.353C144.692,16.752 144.584,17.21 144.535,17.344C143.477,17.366 142.735,17.409 142.408,17.429C142.391,17.165 142.371,16.92 142.368,16.903L142.354,16.727L141.381,16.727L141.364,16.9C141.364,16.914 141.347,17.076 141.333,17.298C141.256,17.258 141.174,17.233 141.083,17.233C140.747,17.233 140.474,17.554 140.474,17.947C140.474,18.339 140.747,18.661 141.083,18.661C141.174,18.661 141.256,18.638 141.333,18.595C141.347,18.817 141.364,18.979 141.364,18.993L141.381,19.167L142.354,19.167L142.368,18.991C142.371,18.973 142.391,18.729 142.408,18.464C142.695,18.484 143.31,18.518 144.203,18.541C144.248,18.638 144.353,18.917 144.436,19.659C141.148,19.921 138.079,21.024 135.548,22.859L135.394,22.967L137.305,25.708C136.788,26.132 136.313,26.596 135.886,27.091C135.744,26.047 135.443,25.64 135.426,25.62L135.206,25.333L135.093,25.674C135.024,25.873 134.825,26.112 134.615,26.363C134.55,26.442 134.484,26.522 134.419,26.601L134.288,26.758C134.103,26.971 133.824,27.301 133.58,27.705C133.281,27.19 133.039,26.966 133.028,26.954L132.889,26.826L132.758,26.966C130.92,28.925 131.518,31.647 131.984,32.992C131.449,32.384 131.105,31.912 131.099,31.903L130.809,31.502L130.753,31.991C130.536,33.857 130.974,35.592 132.095,37.276C131.441,37.057 131.117,36.815 131.114,36.812L130.778,36.553L130.807,36.977C130.898,38.28 131.495,39.562 132.544,40.711C131.648,40.618 131.068,40.697 131.028,40.703L130.73,40.748L130.898,41.001C131.222,41.488 131.87,42.35 132.82,43.098L131.043,47.91L129.493,47.91L129.493,48.957L130.121,48.957C131.25,49.716 133.517,50.95 136.321,50.95C139.123,50.948 141.39,49.719 142.519,48.957L143.156,48.957L143.156,47.91L141.623,47.91L141.256,46.92C142.357,47.196 143.492,47.375 144.652,47.449L144.774,51.027L145.892,52.688L147.013,51.027L147.135,47.449C148.295,47.375 149.433,47.196 150.531,46.92L150.164,47.91L148.631,47.91L148.631,48.957L149.268,48.957C150.397,49.719 152.664,50.948 155.465,50.95L155.468,50.95C158.27,50.95 160.539,49.716 161.669,48.957L162.294,48.957L162.294,47.91L160.744,47.91ZM155.619,39.417C155.579,39.414 155.539,39.449 155.44,39.417L155.346,39.318L155.357,39.508C155.32,39.619 155.283,39.682 155.138,39.716C155.198,39.821 155.198,39.921 155.17,39.986C155.423,39.747 155.619,39.505 155.619,39.417M141.191,25.526C141.35,25.561 141.6,25.504 141.66,25.433C141.6,25.504 141.35,25.561 141.191,25.526M136.614,30.558C136.407,31.061 136.893,31.331 136.904,31.821C137.03,31.869 136.967,31.732 137.067,31.758C137.101,31.875 137.18,31.946 137.197,32.082C137.271,32.136 137.445,32.094 137.49,32.179C137.485,32.35 137.433,32.446 137.49,32.6C137.573,32.668 137.738,32.654 137.849,32.697C137.854,32.799 137.917,32.844 137.945,32.924C137.843,33.095 137.783,33.305 137.684,33.476C137.792,33.755 137.658,34.144 137.718,34.449C137.783,34.798 138.17,35.123 138.17,35.617C138.693,35.78 138.676,36.476 138.949,36.883C138.918,37.523 139.294,37.85 139.177,38.473C139.345,38.783 139.376,39.184 139.663,39.414C139.962,39.651 140.551,40.37 140.443,40.097C140.374,40.015 140.033,39.178 140.053,38.635C140.067,38.305 140.278,37.947 140.411,37.597C140.65,36.971 140.457,36.616 140.972,36.431L141.06,36.397L141.034,36.34C140.755,35.66 141.43,35.145 141.319,34.645C141.256,34.355 141.023,34.005 140.957,33.945C140.895,33.888 140.713,33.954 140.443,33.931C140.266,33.598 139.854,33.501 139.86,32.989C139.695,32.884 139.467,32.842 139.47,32.569C139.203,32.62 139.137,32.304 138.918,32.21C138.779,32.247 138.691,32.33 138.594,32.406C138.372,32.29 138.167,32.372 137.977,32.503C137.86,32.48 137.8,32.398 137.718,32.341C137.721,32.042 137.798,31.812 137.618,31.627C137.667,31.394 137.792,31.189 137.618,31.044C137.445,31.018 137.513,31.24 137.294,31.172C137.158,30.799 137.661,30.538 137.618,30.134C137.823,30.088 138.085,30.1 138.267,30.037C138.4,30.108 138.4,30.418 138.267,30.492C138.295,30.538 138.318,30.595 138.398,30.589C138.614,30.433 138.514,30.185 138.594,29.972C138.674,29.756 138.992,29.594 139.146,29.355C139.188,29.286 139.171,29.181 139.208,29.127C139.234,29.099 139.342,29.102 139.404,29.03L139.47,28.868C139.621,28.737 139.922,28.649 140.118,28.544C140.249,28.473 140.332,28.385 140.539,28.351C140.67,28.154 140.593,27.753 140.898,27.733C140.861,27.887 140.906,27.933 140.864,28.089C141.284,27.972 141.077,27.423 141.415,27.213C141.324,26.835 141.603,26.71 141.74,26.468C141.634,26.382 141.302,26.377 141.449,26.144C141.629,26.081 141.563,26.266 141.674,26.274C141.893,26.252 141.893,26.013 142.032,25.916C142.146,25.899 142.112,26.033 142.226,26.013C142.286,25.822 142.271,25.561 142.357,25.396C141.964,25.342 141.981,25.973 141.512,25.947C140.94,26.317 140.804,27.119 140.28,27.54C140.241,27.313 140.098,27.031 140.118,26.857C140.13,26.749 140.303,26.431 140.411,26.337C140.497,26.263 140.667,26.272 140.767,26.209C140.955,26.092 141.003,25.913 141.156,25.851C141.748,25.896 141.941,25.487 142.226,25.105C142.03,24.946 141.819,25.131 141.643,25.236C141.666,25.148 141.577,25.171 141.546,25.137C141.438,25.037 141.674,24.966 141.577,24.878C141.438,25.105 141.063,25.1 140.864,25.268C140.809,25.381 140.935,25.629 140.701,25.623C140.608,25.521 140.775,25.481 140.801,25.396C140.568,25.177 140.292,25.194 140.019,25.364C140.013,25.236 140.161,25.265 140.153,25.137C140.073,25.097 139.979,25.071 139.922,25.009C139.746,25.083 139.592,25.305 139.37,25.236C139.376,25.211 139.231,25.145 139.12,25.097L138.941,25.199C138.912,25.347 138.864,25.569 138.884,25.689C138.327,25.671 138.255,26.138 137.783,26.209C137.931,26.462 138.358,25.967 138.594,26.209C138.221,26.704 138.002,27.347 137.456,27.668C137.34,28.157 136.953,28.376 136.677,28.706C136.623,29.249 136.535,29.591 136.353,29.972C136.435,30.174 136.449,30.438 136.614,30.558M154.132,40.518C154.151,40.541 154.285,40.592 154.359,40.578C154.524,40.544 154.615,40.401 154.76,40.273L154.951,40.214L154.996,40.145C155.047,40.083 155.079,40.108 155.042,39.966C154.709,40.12 154.402,40.299 154.132,40.518M147.61,28.285C147.763,28.294 147.741,28.479 147.869,28.513C148,28.501 148,28.359 148.162,28.382C148.227,28.544 148.281,28.718 148.486,28.74C148.5,28.863 148.423,28.891 148.389,28.965C148.105,28.78 147.826,29.008 147.547,28.934C147.718,28.8 147.556,28.464 147.61,28.285M149.265,28.351C149.328,28.447 149.262,28.678 149.331,28.772C149.333,28.888 149.541,28.797 149.589,28.868C149.587,29.039 149.621,29.269 149.624,29.517C149.316,29.574 149.174,29.394 149.072,29.127C148.901,28.689 148.728,28.163 149.265,28.351M144.592,27.961C144.589,28.123 144.823,28.055 144.885,28.154C144.928,28.393 144.786,28.445 144.689,28.544C144.561,28.513 144.439,28.473 144.333,28.413C144.094,28.612 144.055,29.065 144.302,29.292C144.464,29.241 144.766,29.161 144.885,29.258C144.934,29.178 144.948,29.062 144.951,28.934C145.281,28.848 145.477,28.419 145.858,28.447C146.122,28.467 146.302,28.755 146.475,28.965C146.498,29.087 146.418,29.104 146.441,29.227C146.566,29.198 146.612,29.09 146.668,28.999C146.6,28.732 146.387,28.612 146.313,28.351C146.498,28.402 146.595,28.533 146.765,28.513C146.674,28.982 147.146,28.988 147.124,29.292C147.303,29.221 147.212,28.883 147.513,28.934C147.502,29.184 147.613,29.309 147.741,29.42C147.909,29.414 147.926,29.258 148.13,29.292C148.253,29.406 148.173,29.724 148.196,29.941C148.085,30.114 147.869,29.983 147.741,30.134C147.562,30.131 147.527,29.98 147.382,29.941C146.902,30.236 146.66,29.759 146.151,29.744C146.074,29.636 146.088,29.44 145.955,29.389C145.727,29.429 145.482,29.494 145.306,29.355C145.081,29.508 144.649,29.554 144.333,29.517C143.921,29.722 143.844,30.262 143.361,30.393C143.261,30.908 142.542,31.721 142.937,32.244C143.031,32.367 143.145,32.398 143.196,32.534C143.253,32.682 143.159,32.847 143.295,32.989C143.696,33.265 144.518,33.345 144.982,33.055C145.349,33.186 145.622,33.12 146.02,33.186C146,33.345 146.094,33.393 146.117,33.51C146.048,33.641 145.972,33.712 145.955,33.834C145.903,34.298 146.393,34.431 146.441,34.969C146.484,35.404 146.185,35.888 146.182,36.203C146.182,36.326 146.296,36.457 146.313,36.59C146.35,36.926 146.159,37.375 146.475,37.566C146.492,37.83 146.575,38.027 146.703,38.183C146.959,38.007 147.234,38.058 147.482,37.955C147.92,37.773 148.019,37.224 148.358,36.949C148.253,36.124 149.1,35.91 149.038,35.197C149.026,35.043 148.915,34.966 148.876,34.776C149.211,34.005 149.769,33.462 150.076,32.665C149.942,32.512 149.646,32.694 149.396,32.634C148.824,32.145 148.594,31.314 148.293,30.558C148.557,30.566 148.645,30.91 148.617,31.107C148.833,31.508 149.132,31.826 149.265,32.31C149.649,32.207 150.363,31.977 150.434,31.596C150.446,31.533 150.423,31.277 150.4,31.206C150.363,31.078 150.292,31.013 150.175,30.913C150.127,30.996 150.087,31.087 149.979,31.107C149.78,30.939 149.535,30.646 149.589,30.33C149.885,30.282 149.828,30.586 149.948,30.717C150.11,30.74 150.099,30.589 150.272,30.62C150.326,30.728 150.38,30.836 150.434,30.945C150.818,30.706 151.219,30.873 151.213,31.368C151.248,31.442 151.31,31.485 151.407,31.496C151.58,32.059 151.89,32.483 152.155,32.958C152.263,32.873 152.235,32.648 152.348,32.569C152.067,32.122 152.488,31.693 152.738,31.4C152.926,31.493 152.954,31.747 153.193,31.789C153.202,31.863 153.187,31.914 153.159,31.951C153.213,32.014 153.31,32.04 153.418,32.048C153.475,32.381 153.492,32.756 153.711,32.924C153.668,33.186 153.728,33.373 153.776,33.638C153.682,33.646 153.676,33.567 153.58,33.575C153.731,34.042 153.785,34.602 154.1,34.904C154.208,34.392 153.918,34.139 153.807,33.703C153.984,33.769 153.95,33.445 153.938,33.348C153.904,33.086 153.563,32.722 153.676,32.472C153.867,32.463 153.759,32.756 153.873,32.827C154.541,32.571 153.878,31.92 153.645,31.627C153.702,31.294 154.194,31.4 154.294,31.107C154.274,30.802 154.206,30.788 154.294,30.524C154.274,30.396 154.14,30.376 154.1,30.265C154.191,29.685 153.816,29.4 153.676,29.161C153.978,28.999 153.941,29.522 154.197,29.616C154.339,29.503 154.203,29.173 154.035,29.161C154.009,28.729 153.711,28.134 153.614,27.571C153.349,27.512 153.165,27.372 153.062,27.148C152.67,27.196 152.644,26.875 152.445,26.727C152.408,26.621 152.488,26.354 152.414,26.209C152.675,26.311 152.792,26.567 152.9,26.823C153.21,27.045 153.58,27.202 153.873,27.441C153.856,27.307 153.659,27.071 153.58,26.889C153.244,26.849 153.261,26.454 152.869,26.468C152.766,26.331 152.983,26.004 152.815,25.788C152.624,25.538 152.835,25.299 152.826,25.177C152.809,24.969 152.454,24.983 152.2,24.795C152.104,24.724 151.521,24.739 151.552,24.756C151.415,24.727 151.35,24.972 151.245,24.975C151.185,24.904 151.148,24.813 151.048,24.781C150.852,24.852 150.744,25.014 150.628,25.171C150.335,24.949 150.008,25.012 149.882,25.333C149.538,25.322 149.214,24.995 148.91,25.236C148.793,25.02 148.509,24.821 148.293,24.975C148.295,25.114 148.347,25.202 148.324,25.364C148.273,25.421 148.187,25.444 148.065,25.43C148.028,25.563 148.034,25.745 147.903,25.785C147.843,25.725 147.843,25.76 147.869,25.657C147.815,25.615 147.69,25.683 147.61,25.623C147.562,25.501 147.755,25.617 147.709,25.495L147.513,25.461C147.618,25.814 147.243,26.024 147.124,26.337C147.035,26.172 147.195,26.007 147.254,25.885C147.092,25.68 146.68,25.856 146.54,25.592C145.798,25.541 145.977,26.414 145.502,26.63L145.568,26.889C145.761,26.9 145.812,26.769 145.989,26.758C146.08,26.84 146.034,27.059 146.151,27.116C146.222,27.079 146.282,27.034 146.41,27.051C146.353,26.894 146.293,26.738 146.216,26.599C146.321,26.499 146.321,26.291 146.475,26.24C146.751,26.547 146.799,27.421 146.182,27.475C146.091,27.338 145.994,27.318 145.858,27.182C145.815,27.281 145.79,27.395 145.727,27.475C145.488,27.546 145.244,27.617 145.144,27.83C144.911,27.674 144.82,27.933 144.592,27.961M154.456,39.48C154.359,39.503 154.339,39.446 154.262,39.449C154.228,39.594 154.058,39.611 154.066,39.804C154.305,39.804 154.316,39.577 154.456,39.48M135.411,36.917L135.411,36.786C135.312,36.804 135.28,36.71 135.252,36.818C135.309,36.849 135.292,36.951 135.411,36.917M150.01,36.397L149.979,36.528C150.064,36.536 150.118,36.516 150.11,36.428L150.01,36.397ZM153.967,37.057C153.844,37.276 153.662,37.654 153.634,37.83C153.58,38.169 153.551,37.97 153.551,38.351C153.89,38.49 153.884,38.228 154.262,38.302C154.581,38.519 154.493,38.905 154.425,39.241C154.831,39.193 154.999,38.888 155.235,38.689C155.562,38.348 156.134,37.543 155.895,36.843C156.108,36.485 156.097,35.845 155.994,35.845C155.994,35.845 155.815,36.397 155.693,36.528C155.693,36.528 155.576,36.337 155.431,36.354C155.485,36.135 155.67,36.087 155.559,35.802C155.483,35.802 155.409,35.822 155.309,35.845C155.07,36.294 155.019,36.138 154.717,36.257C154.672,36.667 154.225,36.84 153.967,37.057M150.01,35.942C149.934,35.802 150.047,35.472 149.848,35.455C149.746,35.785 149.464,35.936 149.2,36.104C149.16,36.53 149.058,36.869 149.2,37.242C149.527,36.971 149.706,36.556 149.786,36.041L150.01,35.942ZM156.794,35.424C156.714,35.41 156.723,35.484 156.632,35.455C156.677,35.6 156.649,35.691 156.632,35.845C156.791,35.74 156.7,35.586 156.794,35.424M154.783,35.424L154.783,35.555C154.863,35.586 155.303,35.623 155.204,35.424C155.101,35.475 154.9,35.401 154.783,35.424M154.976,35.359C155.079,35.373 155.104,35.313 155.173,35.293C155.164,35.205 155.067,35.202 155.042,35.131C154.999,35.185 154.954,35.239 154.976,35.359M154.683,35.359C154.498,35.202 154.333,34.813 154.035,34.969C154.08,35.282 154.379,35.396 154.683,35.359M155.431,34.904L155.301,34.841C155.167,34.946 155.446,35.097 155.431,34.904M156.211,35.034C156.27,35.06 156.327,35.088 156.404,35.1C156.356,34.946 156.444,34.787 156.435,34.514C156.376,34.5 156.356,34.446 156.273,34.449C156.208,34.73 156.333,34.815 156.211,35.034M155.69,35.555C155.872,35.549 155.81,35.307 156.014,35.327C156.14,35.384 156.066,35.643 156.211,35.683C156.307,35.347 156.037,35.034 156.08,34.548C155.861,34.508 155.724,34.491 155.559,34.352C155.619,34.759 155.83,35.134 155.69,35.555M156.242,34.352C156.213,34.218 156.165,34.104 156.046,34.062C156.068,34.21 156.066,34.306 156.242,34.352M155.431,34.483C155.397,34.275 155.511,34.121 155.332,33.962C155.255,34.141 155.312,34.272 155.269,34.449C155.346,34.437 155.34,34.508 155.431,34.483M155.008,33.931C154.732,34.096 154.729,34.537 154.683,34.938C154.837,34.96 154.897,34.889 154.976,34.841C154.905,34.429 154.996,34.323 155.073,33.962L155.008,33.931ZM154.521,34.613L154.652,34.579C154.564,34.204 154.936,33.891 154.783,33.445L154.683,33.445C154.663,33.664 154.379,33.649 154.328,33.9C154.279,34.124 154.39,34.446 154.521,34.613M152.348,32.827C152.363,32.964 152.195,33.149 152.348,33.217C152.425,33.154 152.476,33.063 152.51,32.958C152.417,32.953 152.454,32.819 152.348,32.827M154.976,33.314C155.19,33.328 155.244,32.89 155.107,32.762C155.025,32.918 154.865,33.061 154.976,33.314M154.652,31.855C154.686,32.148 154.8,32.46 154.976,32.697C155.005,32.446 155.016,31.812 154.652,31.855M153.841,31.693L154.035,31.693C154.063,31.522 153.984,31.462 153.841,31.465C153.776,31.525 153.824,31.619 153.841,31.693M138.398,31.465C138.375,31.584 138.449,31.607 138.56,31.596C138.554,31.502 138.506,31.456 138.398,31.465M138.691,31.596C138.853,31.658 138.884,31.542 139.046,31.53C139.046,31.363 138.87,31.294 138.722,31.368C138.554,31.277 138.486,31.087 138.366,30.947C138.233,30.942 138.116,30.956 138.042,31.01C138.23,31.041 138.369,31.135 138.432,31.368C138.514,31.337 138.614,31.314 138.656,31.4C138.654,31.479 138.654,31.556 138.691,31.596M154.587,31.334C154.638,31.172 154.564,31.087 154.652,30.882C154.564,30.905 154.587,30.817 154.521,30.817C154.487,30.922 154.467,31.041 154.425,31.141C154.479,31.203 154.501,31.303 154.587,31.334M148,29.551C148.022,29.437 147.886,29.434 147.837,29.485C147.849,29.599 147.923,29.568 148,29.551M147.544,29.42C147.425,29.463 147.32,29.323 147.254,29.42C147.308,29.466 147.513,29.548 147.544,29.42M154.749,30.134C154.791,29.941 154.646,29.935 154.652,29.778C154.902,29.562 154.715,29.175 154.521,29.03C154.763,29.412 154.143,30.032 154.749,30.134M154.359,28.675C154.217,28.581 154.402,28.362 154.262,28.285C154.257,28.376 154.041,28.257 154.035,28.351C154.177,28.405 154.2,28.746 154.359,28.675M144.464,27.313L144.302,27.313C144.285,27.386 144.237,27.477 144.302,27.54L144.43,27.54C144.385,27.398 144.541,27.389 144.464,27.313M144.82,27.085C144.8,27.003 144.939,26.832 144.788,26.823C144.405,27.048 144.931,27.378 144.723,27.699C144.862,27.668 144.982,27.614 145.113,27.571C145.11,27.313 144.854,27.31 144.82,27.085M144.077,25.885C144.012,25.936 143.972,26.016 143.978,26.144C144.188,26.189 144.427,26.161 144.433,25.916C144.274,25.814 144.197,26.004 144.077,25.885M147.513,25.299C147.522,25.194 147.473,25.142 147.382,25.137C147.402,25.216 147.411,25.305 147.513,25.299M149.589,25.171C149.712,25.194 149.746,25.131 149.851,25.137L149.851,25.009C149.771,25.017 149.726,25.06 149.624,25.04L149.589,25.171ZM142.681,24.847C142.542,24.741 142.394,24.815 142.422,25.04C142.596,25.06 142.598,24.912 142.681,24.847M149.265,24.975C149.484,24.997 149.606,24.929 149.655,24.781C149.521,24.727 149.353,24.824 149.234,24.813C149.205,24.904 149.279,24.898 149.265,24.975M142.032,24.685C141.919,24.71 141.882,24.813 141.839,24.909C141.944,24.878 142.03,24.821 142.032,24.685M141.905,24.619L141.839,24.52L141.708,24.619L141.905,24.619ZM142.908,24.423C142.809,24.38 142.653,24.557 142.65,24.716C142.82,24.702 142.897,24.596 142.908,24.423M142.129,24.975C142.251,24.989 142.283,24.912 142.357,24.878C142.382,24.79 142.291,24.813 142.291,24.747C142.482,24.702 142.519,24.5 142.65,24.392C142.411,24.423 142.328,24.611 142.163,24.716C142.269,24.793 142.132,24.898 142.129,24.975M142.26,24.392C142.143,24.406 142.081,24.471 142.032,24.554L142.129,24.619C142.152,24.522 142.34,24.488 142.26,24.392M143.981,24.52C143.628,24.602 143.176,24.582 143.167,25.009C143.264,25.009 143.332,24.912 143.395,24.975C143.264,25.268 142.974,25.398 142.781,25.623C142.746,26.016 142.328,26.189 142.453,26.63C142.729,26.559 142.803,26.289 143.136,26.274C143.236,25.714 144.089,25.908 144.336,25.495C144.348,25.415 144.188,25.512 144.24,25.396C144.345,25.396 144.362,25.305 144.498,25.333C144.615,24.995 144.936,24.861 145.019,24.488L144.791,24.488C144.797,24.397 144.945,24.448 144.919,24.326C144.609,24.229 144.151,24.295 143.981,24.52M143.071,24.813C143.304,24.505 143.878,24.539 144.077,24.195C143.548,24.275 143.176,24.508 142.843,24.781C142.886,24.824 142.985,24.813 143.071,24.813M154.018,22.617C153.668,22.415 153.261,22.648 153.005,23.086C152.692,23.626 152.832,23.959 153.116,24.127C153.423,24.303 153.836,24.204 154.16,23.649C154.416,23.208 154.345,22.807 154.018,22.617M154.109,22.475C154.649,22.787 154.902,23.331 154.547,23.945C154.254,24.448 153.611,24.625 153.042,24.295C152.505,23.982 152.232,23.456 152.601,22.819C152.891,22.318 153.517,22.133 154.109,22.475M151.893,21.636L151.777,21.593C151.674,21.849 151.569,22.105 151.469,22.361C151.651,22.432 151.899,22.472 152.038,22.119C152.149,21.84 152.05,21.695 151.893,21.636M151.131,22.031C151.25,21.724 151.327,21.51 151.407,21.263C151.467,21.291 151.538,21.328 151.626,21.365C151.751,21.414 151.899,21.456 152.033,21.508C152.289,21.61 152.408,21.704 152.465,21.809C152.542,21.951 152.553,22.085 152.488,22.244C152.323,22.665 151.961,22.714 151.555,22.554L151.415,22.5C151.307,22.773 151.202,23.049 151.114,23.331C151.054,23.302 150.983,23.262 150.892,23.228C150.804,23.191 150.724,23.171 150.665,23.154C150.775,22.918 150.864,22.711 150.983,22.404L151.131,22.031ZM150.448,22.708C150.397,22.779 150.352,22.859 150.323,22.935C150.153,22.978 149.945,22.972 149.709,22.913C149.046,22.748 148.762,22.233 148.898,21.695C149.097,20.907 149.706,20.74 150.306,20.89C150.505,20.942 150.741,21.064 150.852,21.178C150.793,21.263 150.747,21.357 150.713,21.451L150.673,21.442C150.576,21.229 150.451,21.115 150.246,21.064C149.942,20.987 149.53,21.163 149.376,21.769C149.228,22.358 149.518,22.677 149.845,22.759C150.027,22.805 150.261,22.773 150.417,22.677L150.448,22.708ZM148.039,21.306C148.088,20.979 148.116,20.754 148.136,20.495C148.199,20.509 148.275,20.529 148.372,20.546C148.469,20.558 148.548,20.563 148.614,20.566C148.557,20.819 148.52,21.041 148.472,21.368L148.412,21.764C148.364,22.091 148.338,22.315 148.318,22.574C148.256,22.56 148.176,22.537 148.082,22.526C147.985,22.512 147.906,22.509 147.84,22.503C147.894,22.25 147.934,22.028 147.982,21.701L148.039,21.306ZM143.969,22.136C143.952,22.221 143.944,22.31 143.952,22.392C143.813,22.503 143.622,22.586 143.383,22.631C142.712,22.756 142.237,22.412 142.135,21.863C141.987,21.064 142.47,20.657 143.079,20.543C143.281,20.506 143.546,20.518 143.696,20.575C143.676,20.677 143.674,20.782 143.685,20.882L143.642,20.89C143.466,20.737 143.304,20.686 143.099,20.725C142.789,20.782 142.488,21.118 142.604,21.732C142.712,22.327 143.11,22.497 143.443,22.435C143.628,22.398 143.827,22.273 143.927,22.119L143.969,22.136ZM140.846,21.3L140.73,21.34C140.812,21.604 140.895,21.869 140.977,22.13C141.165,22.071 141.381,21.946 141.265,21.584C141.174,21.297 141.006,21.249 140.846,21.3M140.505,22.091C140.406,21.775 140.332,21.562 140.235,21.32C140.3,21.306 140.377,21.289 140.471,21.26C140.599,21.22 140.741,21.158 140.875,21.115C141.137,21.03 141.29,21.03 141.398,21.075C141.549,21.135 141.643,21.232 141.694,21.397C141.831,21.826 141.583,22.093 141.165,22.227L141.023,22.273C141.111,22.554 141.205,22.833 141.316,23.109C141.25,23.12 141.174,23.137 141.08,23.166C140.989,23.197 140.915,23.228 140.855,23.254C140.792,23.004 140.73,22.785 140.627,22.472L140.505,22.091ZM139.532,22.492C139.402,22.19 139.308,21.983 139.188,21.752C139.251,21.732 139.328,21.71 139.416,21.673C139.507,21.633 139.575,21.593 139.632,21.564C139.717,21.809 139.803,22.02 139.931,22.321L140.09,22.691C140.218,22.992 140.312,23.2 140.431,23.43C140.369,23.45 140.292,23.473 140.204,23.513C140.116,23.55 140.044,23.59 139.988,23.621C139.902,23.376 139.82,23.166 139.689,22.861L139.532,22.492ZM137.712,22.659C137.365,22.864 137.368,23.334 137.624,23.769C137.943,24.309 138.301,24.352 138.585,24.184C138.89,24.005 139.009,23.595 138.682,23.043C138.423,22.603 138.042,22.466 137.712,22.659M137.635,22.509C138.173,22.193 138.77,22.239 139.131,22.85C139.424,23.353 139.262,23.999 138.696,24.332C138.162,24.648 137.57,24.625 137.195,23.991C136.902,23.49 137.047,22.856 137.635,22.509M152.59,44.016C152.436,43.698 152.323,43.484 152.186,43.243C152.249,43.217 152.331,43.189 152.425,43.143C152.516,43.098 152.59,43.052 152.65,43.015C152.752,43.274 152.855,43.493 153.011,43.812L153.199,44.195C153.301,44.403 153.409,44.616 153.483,44.764C153.696,44.659 153.907,44.542 154.112,44.409L154.163,44.542L154.234,44.659C154.132,44.705 153.992,44.759 153.733,44.887C153.273,45.111 153.199,45.16 153.139,45.194C153.037,44.938 152.934,44.716 152.781,44.4L152.59,44.016ZM150.659,43.957C150.246,44.085 150.136,44.577 150.298,45.091C150.5,45.731 150.864,45.862 151.202,45.757C151.563,45.643 151.782,45.242 151.578,44.588C151.413,44.067 151.046,43.834 150.659,43.957M150.613,43.783C151.25,43.581 151.862,43.772 152.089,44.497C152.277,45.091 151.95,45.726 151.282,45.936C150.647,46.135 150.033,45.973 149.797,45.219C149.612,44.628 149.917,44.002 150.613,43.783M148.401,44.525L148.27,44.548C148.312,44.841 148.355,45.134 148.401,45.424C148.608,45.39 148.858,45.293 148.796,44.892C148.745,44.577 148.577,44.497 148.401,44.525M147.909,45.302C147.854,44.955 147.812,44.716 147.749,44.443C147.818,44.44 147.903,44.437 148.008,44.42C148.15,44.397 148.31,44.358 148.457,44.332C148.75,44.287 148.91,44.309 149.021,44.375C149.169,44.466 149.251,44.582 149.279,44.764C149.353,45.242 149.046,45.484 148.583,45.558L148.426,45.581C148.475,45.893 148.526,46.203 148.597,46.511C148.526,46.516 148.44,46.519 148.338,46.536C148.236,46.55 148.153,46.576 148.085,46.59C148.062,46.314 148.031,46.075 147.977,45.726L147.909,45.302ZM146.225,44.713C146.228,45 146.233,45.285 146.245,45.569L146.313,45.575C146.589,45.566 146.737,45.407 146.725,45.111C146.714,44.739 146.569,44.702 146.225,44.713M146.276,45.706L146.248,45.706L146.253,45.834C146.262,46.186 146.279,46.431 146.304,46.707C146.236,46.701 146.151,46.696 146.046,46.698C145.943,46.701 145.858,46.715 145.79,46.724C145.798,46.445 145.798,46.203 145.787,45.851L145.773,45.421C145.761,45.069 145.747,44.827 145.719,44.551C145.79,44.554 145.875,44.562 145.977,44.56C146.091,44.554 146.225,44.534 146.441,44.528C146.76,44.517 146.876,44.542 146.99,44.616C147.118,44.705 147.2,44.841 147.206,45.026C147.215,45.33 147.047,45.532 146.737,45.62C146.95,45.97 147.2,46.32 147.442,46.67C147.345,46.667 147.252,46.661 147.158,46.664C147.064,46.667 146.967,46.678 146.87,46.687L146.276,45.706ZM143.927,45.302C143.955,44.952 143.969,44.71 143.975,44.432C144.16,44.451 144.348,44.48 144.533,44.494C144.84,44.52 145.104,44.537 145.19,44.534L145.164,44.665L145.167,44.807C144.928,44.773 144.552,44.719 144.459,44.71C144.424,44.938 144.405,45.162 144.385,45.393C144.66,45.41 144.862,45.421 145.101,45.427C145.081,45.498 145.076,45.527 145.073,45.569L145.079,45.697C144.84,45.66 144.606,45.629 144.368,45.609C144.356,45.743 144.342,45.876 144.331,46.01C144.319,46.144 144.311,46.277 144.308,46.403C144.541,46.422 144.786,46.431 145.03,46.422L145.005,46.565L145.005,46.701C144.894,46.687 144.746,46.661 144.459,46.639C143.947,46.596 143.861,46.596 143.79,46.596C143.833,46.323 143.858,46.081 143.89,45.729L143.927,45.302ZM142.422,44.682C142.445,44.565 142.468,44.454 142.468,44.409C142.348,44.386 142.084,44.352 141.893,44.335L141.939,44.201L141.95,44.062C142.229,44.13 142.365,44.164 142.749,44.241C143.13,44.318 143.273,44.341 143.537,44.383L143.494,44.517L143.48,44.656C143.318,44.599 143.062,44.528 142.94,44.506C142.926,44.548 142.903,44.656 142.877,44.776L142.724,45.546C142.653,45.893 142.613,46.132 142.576,46.408C142.507,46.385 142.425,46.36 142.325,46.34C142.223,46.32 142.138,46.312 142.069,46.303C142.141,46.039 142.197,45.8 142.266,45.455L142.422,44.682ZM139.737,43.317L139.865,43.379L140.005,43.413C140.263,44.036 140.517,44.656 140.784,45.285C140.955,44.813 141.245,44.008 141.27,43.866L141.398,43.928L141.538,43.962C141.179,44.807 141.037,45.202 140.755,45.99L140.639,45.933L140.517,45.905C140.283,45.279 140.024,44.645 139.74,43.999C139.655,44.218 139.567,44.466 139.487,44.688C139.316,45.162 139.265,45.33 139.234,45.444L139.1,45.379L138.958,45.345C139.003,45.265 139.325,44.517 139.541,43.911C139.638,43.644 139.689,43.459 139.737,43.317M138.29,43.556C138.452,43.24 138.557,43.024 138.665,42.768C138.725,42.805 138.796,42.853 138.89,42.901C138.981,42.947 139.06,42.978 139.126,43.004C138.981,43.243 138.867,43.453 138.705,43.769L138.509,44.15C138.346,44.463 138.241,44.682 138.133,44.938C138.073,44.901 138.002,44.852 137.908,44.804C137.817,44.756 137.738,44.727 137.672,44.702C137.817,44.463 137.934,44.25 138.093,43.937L138.29,43.556Z" style="fill:rgb(88,89,91);fill-rule:nonzero;"/>
                <path d="M116.136,58.81C116.136,57.684 116.085,56.543 116.031,55.417C116.253,55.457 116.463,55.482 116.674,55.482C116.884,55.482 117.092,55.457 117.317,55.417C117.263,56.543 117.211,57.684 117.211,58.81L117.211,61.063C117.211,62.192 117.263,63.329 117.317,64.458C117.092,64.419 116.884,64.393 116.674,64.393C116.463,64.393 116.253,64.419 116.031,64.458C116.085,63.329 116.136,62.192 116.136,61.063L116.136,58.81Z" style="fill:rgb(88,89,91);fill-rule:nonzero;"/>
                <path d="M127.3,64.627C125.309,62.281 122.923,59.767 120.682,57.383C120.67,57.867 120.645,58.652 120.645,60.043C120.645,61.169 120.696,63.933 120.761,64.457C120.616,64.417 120.46,64.391 120.303,64.391C120.147,64.391 119.988,64.417 119.82,64.457C119.922,63.842 120.093,60.486 120.093,58.757C120.093,57.107 120.093,55.836 120.053,55.247L120.264,55.247C122.399,57.565 125.295,60.722 126.893,62.335C126.893,59.989 126.893,57.434 126.788,55.415C126.933,55.455 127.09,55.481 127.235,55.481C127.38,55.481 127.51,55.455 127.653,55.415C127.576,56.189 127.445,58.783 127.445,59.807C127.445,61.143 127.471,64.039 127.482,64.627L127.3,64.627Z" style="fill:rgb(88,89,91);fill-rule:nonzero;"/>
                <path d="M132.083,58.81C132.083,57.905 132.069,57.001 132.043,56.097C131.139,56.097 129.973,56.151 129.239,56.242C129.279,56.111 129.304,55.966 129.304,55.824C129.304,55.693 129.279,55.559 129.239,55.417C130.365,55.457 131.494,55.482 132.621,55.482C133.747,55.482 134.873,55.457 135.999,55.417C135.96,55.559 135.934,55.693 135.934,55.835C135.934,55.966 135.96,56.111 135.999,56.242C135.268,56.151 134.102,56.097 133.198,56.097C133.169,57.001 133.158,57.905 133.158,58.81L133.158,61.063C133.158,62.192 133.209,63.329 133.263,64.458C133.039,64.419 132.831,64.393 132.621,64.393C132.41,64.393 132.2,64.419 131.978,64.458C132.032,63.329 132.083,62.192 132.083,61.063L132.083,58.81Z" style="fill:rgb(88,89,91);fill-rule:nonzero;"/>
                <path d="M137.691,58.797C137.691,57.671 137.64,56.53 137.586,55.415C138.374,55.455 139.144,55.481 139.932,55.481C140.717,55.481 141.491,55.455 142.265,55.415C142.239,55.546 142.225,55.68 142.225,55.81C142.225,55.941 142.239,56.072 142.265,56.203C141.164,56.123 140.521,56.032 138.817,56.032C138.806,56.595 138.766,57.053 138.766,57.696C138.766,58.379 138.778,59.098 138.778,59.425C140.325,59.425 141.189,59.36 141.963,59.295C141.937,59.425 141.923,59.57 141.923,59.701C141.923,59.832 141.937,59.963 141.963,60.094C141.059,60.003 139.409,59.977 138.778,59.977C138.766,60.29 138.766,60.617 138.766,61.877C138.766,62.873 138.778,63.512 138.792,63.842C139.958,63.842 141.502,63.828 142.33,63.672C142.304,63.788 142.29,63.959 142.29,64.078C142.29,64.195 142.304,64.34 142.33,64.457C141.556,64.417 140.771,64.391 139.972,64.391C139.17,64.391 138.385,64.417 137.586,64.457C137.64,63.316 137.691,62.179 137.691,61.049L137.691,58.797Z" style="fill:rgb(88,89,91);fill-rule:nonzero;"/>
                <path d="M145.462,59.558C145.698,59.609 145.999,59.623 146.338,59.623C147.413,59.623 148.841,59.177 148.841,57.618C148.841,56.242 147.703,55.9 146.81,55.9C146.207,55.9 145.814,55.94 145.538,55.966C145.502,56.924 145.462,57.866 145.462,58.81L145.462,59.558ZM144.387,58.81C144.387,57.684 144.335,56.543 144.281,55.417C144.779,55.457 145.277,55.482 145.777,55.482C146.272,55.482 146.77,55.417 147.271,55.417C148.75,55.417 149.995,55.929 149.995,57.487C149.995,59.177 148.306,59.859 147.308,59.99C147.95,60.789 150.137,63.605 150.9,64.458C150.638,64.419 150.376,64.393 150.112,64.393C149.864,64.393 149.603,64.419 149.352,64.458C148.829,63.656 147.086,61.247 145.959,60.107L145.462,60.107L145.462,61.063C145.462,62.192 145.513,63.329 145.567,64.458C145.342,64.419 145.135,64.393 144.924,64.393C144.714,64.393 144.503,64.419 144.281,64.458C144.335,63.329 144.387,62.192 144.387,61.063L144.387,58.81Z" style="fill:rgb(88,89,91);fill-rule:nonzero;"/>
                <path d="M153.612,59.794C153.885,59.859 154.252,59.896 154.542,59.896C155.614,59.896 156.991,59.493 156.991,57.709C156.991,56.216 156.141,55.9 154.79,55.9L153.612,55.9L153.612,59.794ZM152.537,58.81C152.537,57.684 152.486,56.543 152.432,55.417C152.85,55.457 153.282,55.482 153.703,55.482C154.121,55.482 154.96,55.417 155.327,55.417C156.115,55.417 158.197,55.442 158.197,57.63C158.197,59.936 155.93,60.383 154.673,60.383C154.281,60.383 153.951,60.369 153.612,60.343L153.612,61.063C153.612,62.192 153.663,63.329 153.717,64.458C153.493,64.419 153.282,64.393 153.075,64.393C152.864,64.393 152.654,64.419 152.432,64.458C152.486,63.329 152.537,62.192 152.537,61.063L152.537,58.81Z" style="fill:rgb(88,89,91);fill-rule:nonzero;"/>
                <path d="M164.133,55.729C162.088,55.729 160.518,57.029 160.518,59.936C160.518,62.846 162.088,64.142 164.133,64.142C166.189,64.142 167.762,62.846 167.762,59.936C167.762,57.029 166.189,55.729 164.133,55.729M164.133,55.246C167.028,55.246 169.047,56.961 169.047,59.936C169.047,62.911 167.028,64.626 164.133,64.626C161.252,64.626 159.232,62.911 159.232,59.936C159.232,56.961 161.252,55.246 164.133,55.246" style="fill:rgb(88,89,91);fill-rule:nonzero;"/>
                <path d="M171.026,58.81C171.026,57.684 170.974,56.543 170.92,55.417C171.142,55.457 171.353,55.482 171.563,55.482C171.771,55.482 171.981,55.457 172.206,55.417C172.152,56.543 172.101,57.684 172.101,58.81C172.101,61.011 172.126,62.556 172.141,63.841C173.372,63.841 174.444,63.841 175.755,63.671C175.716,63.801 175.69,63.932 175.69,64.063C175.69,64.194 175.716,64.328 175.755,64.458C174.956,64.419 174.143,64.393 173.344,64.393C172.533,64.393 171.734,64.419 170.92,64.458C170.974,63.329 171.026,62.192 171.026,61.063L171.026,58.81Z" style="fill:rgb(88,89,91);fill-rule:nonzero;"/>
            </g>
        </g>
    </g>
</svg>
